<svg xmlns="http://www.w3.org/2000/svg" xmlns:xlink="http://www.w3.org/1999/xlink" viewBox="0 0 660 521"><defs><style>.cls-1{fill:#fff;}.cls-2{opacity:0.3;}.cls-3{fill:url(#linear-gradient);}.cls-4,.cls-8{fill:none;stroke-miterlimit:10;stroke-width:2px;}.cls-4{stroke:#000;}.cls-5{fill:url(#linear-gradient-2);}.cls-6{fill:url(#linear-gradient-3);}.cls-7{fill:url(#linear-gradient-4);}.cls-8{stroke:#fff;}.cls-9{fill:url(#linear-gradient-5);}</style><linearGradient id="linear-gradient" x1="130.4" y1="252.5" x2="130.4" y2="252.5" gradientUnits="userSpaceOnUse"><stop offset="0" stop-color="#ffab00"/><stop offset="1" stop-color="#ffd740"/></linearGradient><linearGradient id="linear-gradient-2" x1="135" y1="376" x2="360" y2="376" xlink:href="#linear-gradient"/><linearGradient id="linear-gradient-3" x1="130.4" y1="100.5" x2="130.4" y2="100.5" xlink:href="#linear-gradient"/><linearGradient id="linear-gradient-4" x1="130.4" y1="24" x2="130.4" y2="24" xlink:href="#linear-gradient"/><linearGradient id="linear-gradient-5" x1="130.4" y1="497" x2="130.4" y2="497" xlink:href="#linear-gradient"/></defs><title>box3_1</title><g id="Layer_2" data-name="Layer 2"><g id="Layer_1-2" data-name="Layer 1"><rect class="cls-1" x="13.5" y="65.5" width="633" height="384"/><path d="M633,79V436H27V79H633m27-27H0V463H660V52Z"/><rect class="cls-1" x="116" y="124.24" width="428" height="266.53"/><path d="M544,124.24H532v1h12v-1Zm-24,0H508v1h12v-1Zm-24,0H484v1h12v-1Zm-24,0H460v1h12v-1Zm-24,0H436v1h12v-1Zm-24,0H412v1h12v-1Zm-24,0H388v1h12v-1Zm-24,0H364v1h12v-1Zm-24,0H340v1h12v-1Zm-24,0H316v1h12v-1Zm-24,0H292v1h12v-1Zm-24,0H268v1h12v-1Zm-24,0H244v1h12v-1Zm-24,0H220v1h12v-1Zm-24,0H196v1h12v-1Zm-24,0H172v1h12v-1Zm-24,0H148v1h12v-1Zm-24,0H124v1h12v-1Zm-19,4h-1v12h1v-12Zm0,24h-1v12h1v-12Zm0,24h-1v12h1v-12Zm0,24h-1v12h1v-12Zm0,24h-1v12h1v-12Zm0,24h-1v12h1v-12Zm0,24h-1v12h1v-12Zm0,24h-1v12h1v-12Zm0,24h-1v12h1v-12Zm0,24h-1v12h1v-12Zm0,24h-1v12h1v-12Zm12.47,21.53h-12v1h12v-1Zm24,0h-12v1h12v-1Zm24,0h-12v1h12v-1Zm24,0h-12v1h12v-1Zm24,0h-12v1h12v-1Zm24,0h-12v1h12v-1Zm24,0h-12v1h12v-1Zm24,0h-12v1h12v-1Zm24,0h-12v1h12v-1Zm24,0h-12v1h12v-1Zm24,0h-12v1h12v-1Zm24,0h-12v1h12v-1Zm24,0h-12v1h12v-1Zm24,0h-12v1h12v-1Zm24,0h-12v1h12v-1Zm24,0h-12v1h12v-1Zm24,0h-12v1h12v-1Zm24,0h-12v1h12v-1ZM544,373.29h-1v12h1v-12Zm0-24h-1v12h1v-12Zm0-24h-1v12h1v-12Zm0-24h-1v12h1v-12Zm0-24h-1v12h1v-12Zm0-24h-1v12h1v-12Zm0-24h-1v12h1v-12Zm0-24h-1v12h1v-12Zm0-24h-1v12h1v-12Zm0-24h-1v12h1v-12Zm0-24h-1v12h1v-12Z"/><g class="cls-2"><path d="M305.1,257.32a5.7,5.7,0,0,1-.43,1.6,4.3,4.3,0,0,1-.86,1.29,3.81,3.81,0,0,1-1.27.86,4.23,4.23,0,0,1-1.65.31,3.91,3.91,0,0,1-1.38-.23,3.71,3.71,0,0,1-1.1-.64,4.24,4.24,0,0,1-.83-.95,5.83,5.83,0,0,1-.58-1.17,7.17,7.17,0,0,1-.34-1.31,9.13,9.13,0,0,1-.12-1.34v-1.85a9.13,9.13,0,0,1,.12-1.34,7.17,7.17,0,0,1,.34-1.31,5.83,5.83,0,0,1,.58-1.17,4.33,4.33,0,0,1,.83-1,3.66,3.66,0,0,1,1.1-.64,3.91,3.91,0,0,1,1.38-.23,4.27,4.27,0,0,1,1.67.31,3.81,3.81,0,0,1,1.27.86,4.22,4.22,0,0,1,.86,1.3,5.67,5.67,0,0,1,.42,1.63h-1a5.76,5.76,0,0,0-.34-1.24,3.44,3.44,0,0,0-.62-1,2.79,2.79,0,0,0-.93-.69,3,3,0,0,0-1.27-.25,2.75,2.75,0,0,0-1.11.21,2.86,2.86,0,0,0-.85.56,3.35,3.35,0,0,0-.62.82,5.26,5.26,0,0,0-.41,1,7,7,0,0,0-.23,1.08,7.92,7.92,0,0,0-.07,1.07v1.87a8,8,0,0,0,.07,1.07,7,7,0,0,0,.23,1.08,5.26,5.26,0,0,0,.41,1,3.43,3.43,0,0,0,.62.83,2.81,2.81,0,0,0,.85.57,2.75,2.75,0,0,0,1.11.21,3.18,3.18,0,0,0,1.29-.24,2.66,2.66,0,0,0,.93-.67,3.43,3.43,0,0,0,.62-1,5.42,5.42,0,0,0,.33-1.25Z"/><path d="M315.94,255.65a9.54,9.54,0,0,1-.11,1.33,7.36,7.36,0,0,1-.33,1.32,6.22,6.22,0,0,1-.57,1.2,4.31,4.31,0,0,1-.81,1,3.6,3.6,0,0,1-1.09.66,3.78,3.78,0,0,1-3.85-.66,4.25,4.25,0,0,1-.83-1,6.18,6.18,0,0,1-.57-1.2,7.64,7.64,0,0,1-.33-1.31,9,9,0,0,1-.12-1.33V254a9.13,9.13,0,0,1,.12-1.33,7.89,7.89,0,0,1,.33-1.32,6,6,0,0,1,.57-1.2,4.4,4.4,0,0,1,.82-1,3.63,3.63,0,0,1,1.09-.66,3.78,3.78,0,0,1,3.85.66,4.16,4.16,0,0,1,.82,1,6.34,6.34,0,0,1,.57,1.2,7.36,7.36,0,0,1,.33,1.32,9.59,9.59,0,0,1,.11,1.34Zm-1-1.71a9.79,9.79,0,0,0-.08-1.06,6.69,6.69,0,0,0-.23-1.08,5.7,5.7,0,0,0-.41-1,3.42,3.42,0,0,0-.61-.84,2.65,2.65,0,0,0-1.94-.78,2.64,2.64,0,0,0-1.09.22,2.8,2.8,0,0,0-.84.58,3.42,3.42,0,0,0-.61.84,5.7,5.7,0,0,0-.41,1,6.69,6.69,0,0,0-.23,1.08,9.74,9.74,0,0,0-.08,1.05v1.71a9,9,0,0,0,.08,1.06,7.18,7.18,0,0,0,.23,1.08,5.66,5.66,0,0,0,.41,1,3.42,3.42,0,0,0,.61.84,2.78,2.78,0,0,0,.84.58,2.92,2.92,0,0,0,2.2,0,2.8,2.8,0,0,0,.84-.58,3.42,3.42,0,0,0,.61-.84,5.43,5.43,0,0,0,.4-1,6.8,6.8,0,0,0,.22-1.08,10.4,10.4,0,0,0,.07-1.06Z"/><path d="M326.43,261.2h-1l-5.87-10.8v10.8h-1V248.4h1l5.87,10.78V248.4h1Z"/><path d="M337.86,249.33h-4.08V261.2h-1V249.33h-4.09v-.92h9.18Z"/><path d="M347.1,255.07h-5.64v5.22H348v.91h-7.55V248.4h7.51v.92h-6.47v4.83h5.64Z"/><path d="M358.83,261.2h-1l-5.87-10.8v10.8h-1V248.4h1l5.87,10.78V248.4h1Z"/><path d="M370.26,249.33h-4.08V261.2h-1V249.33h-4.09v-.92h9.18Z"/></g><path d="M298.39,100.93v5.27h-1.05V93.4h4a4.94,4.94,0,0,1,1.58.28,3.89,3.89,0,0,1,1.28.75,3.5,3.5,0,0,1,.87,1.18,4.06,4.06,0,0,1,0,3.14,3.42,3.42,0,0,1-.87,1.17,3.84,3.84,0,0,1-1.29.73,5,5,0,0,1-1.57.26Zm0-.89h3a3.5,3.5,0,0,0,1.18-.21,3,3,0,0,0,.95-.56,2.57,2.57,0,0,0,.64-.88,2.85,2.85,0,0,0,.23-1.18,3,3,0,0,0-.23-1.2,2.62,2.62,0,0,0-.63-.91,2.89,2.89,0,0,0-.95-.58,3.6,3.6,0,0,0-1.19-.22h-3Z"/><path d="M314.2,102.63h-4.87l-1.13,3.57h-1.06l4.17-12.8h.95l4.13,12.8h-1.05Zm-4.57-.94h4.27L311.77,95Z"/><path d="M318.6,106.2V93.4h3.09a5.17,5.17,0,0,1,2.2.48,4.94,4.94,0,0,1,1.63,1.25,5.47,5.47,0,0,1,1,1.82,7.23,7.23,0,0,1,.37,2.22v1.26a7.23,7.23,0,0,1-.37,2.22,5.47,5.47,0,0,1-1,1.82,4.89,4.89,0,0,1-1.63,1.24,5.22,5.22,0,0,1-2.2.48Zm1.05-11.9v11h2a4,4,0,0,0,1.81-.42,3.86,3.86,0,0,0,1.3-1.08,4.82,4.82,0,0,0,.79-1.55,6.42,6.42,0,0,0,.28-1.83V99.15a6.35,6.35,0,0,0-.28-1.82,4.77,4.77,0,0,0-.79-1.54,3.89,3.89,0,0,0-1.3-1.07,4,4,0,0,0-1.81-.42Z"/><path d="M329.4,106.2V93.4h3.09a5.17,5.17,0,0,1,2.2.48,4.94,4.94,0,0,1,1.63,1.25,5.47,5.47,0,0,1,1,1.82,7.23,7.23,0,0,1,.37,2.22v1.26a7.23,7.23,0,0,1-.37,2.22,5.47,5.47,0,0,1-1,1.82,4.89,4.89,0,0,1-1.63,1.24,5.22,5.22,0,0,1-2.2.48Zm1.05-11.9v11h2a4,4,0,0,0,1.81-.42,3.86,3.86,0,0,0,1.3-1.08,4.82,4.82,0,0,0,.79-1.55,6.42,6.42,0,0,0,.28-1.83V99.15a6.35,6.35,0,0,0-.28-1.82,4.77,4.77,0,0,0-.79-1.54,3.89,3.89,0,0,0-1.3-1.07,4,4,0,0,0-1.81-.42Z"/><path d="M340.34,93.4h7.41v.95h-3.21v10.92h3.21v.93h-7.41v-.93h3.11V94.35h-3.11Z"/><path d="M358.83,106.2h-1l-5.87-10.8v10.8h-1V93.4h1l5.87,10.78V93.4h1Z"/><path d="M369.89,104.68a4.51,4.51,0,0,1-.83.77,4.68,4.68,0,0,1-1,.53,5.09,5.09,0,0,1-1.08.3,7,7,0,0,1-1.14.09,4.2,4.2,0,0,1-1.4-.24,4,4,0,0,1-1.15-.64,4.46,4.46,0,0,1-.89-1,5.93,5.93,0,0,1-.63-1.18,7.32,7.32,0,0,1-.38-1.32,7.85,7.85,0,0,1-.14-1.38V98.86a8.42,8.42,0,0,1,.13-1.34,7,7,0,0,1,.36-1.31,6,6,0,0,1,.6-1.17,4.3,4.3,0,0,1,.85-.94,3.82,3.82,0,0,1,2.5-.87,4.39,4.39,0,0,1,1.58.28,4,4,0,0,1,1.27.77,3.91,3.91,0,0,1,.88,1.19,4.56,4.56,0,0,1,.43,1.54h-1a4.88,4.88,0,0,0-.37-1.14,3.13,3.13,0,0,0-.64-.91,2.83,2.83,0,0,0-.91-.59,3.1,3.1,0,0,0-1.19-.22,2.84,2.84,0,0,0-1.11.21,2.92,2.92,0,0,0-.87.55,3.49,3.49,0,0,0-.64.81,5.14,5.14,0,0,0-.44,1,6.34,6.34,0,0,0-.25,1.07,8.5,8.5,0,0,0-.09,1.07v1.81a7.55,7.55,0,0,0,.1,1.1,6.58,6.58,0,0,0,.28,1.09,5.52,5.52,0,0,0,.47,1,3.59,3.59,0,0,0,.67.83,3,3,0,0,0,.89.56,3.06,3.06,0,0,0,1.13.22,6,6,0,0,0,.82,0,4.32,4.32,0,0,0,.82-.18,3.22,3.22,0,0,0,.75-.35,2.3,2.3,0,0,0,.6-.55V101h-3v-.91h4Z"/><g class="cls-2"><path class="cls-1" d="M302.55,71.2V58.4H306a6,6,0,0,1,1.51.21,4,4,0,0,1,1.31.61,3.1,3.1,0,0,1,.92,1,3,3,0,0,1,.34,1.5,2.72,2.72,0,0,1-.17,1,2.67,2.67,0,0,1-.45.77,3,3,0,0,1-.67.59,4.28,4.28,0,0,1-.83.42,3.77,3.77,0,0,1,1,.4,3.09,3.09,0,0,1,1.35,1.58,3,3,0,0,1,.2,1.1,3.32,3.32,0,0,1-.32,1.52,3.38,3.38,0,0,1-.88,1.13,4,4,0,0,1-1.28.71,4.85,4.85,0,0,1-1.52.25Zm1.05-7.06h2.58a4.09,4.09,0,0,0,1.07-.16,2.83,2.83,0,0,0,.92-.45,2.3,2.3,0,0,0,.65-.75,2.45,2.45,0,0,0,0-2.16,2.16,2.16,0,0,0-.68-.74,3,3,0,0,0-1-.42,4.75,4.75,0,0,0-1.1-.15H303.6Zm0,.91v5.24h3a3.41,3.41,0,0,0,1.11-.2,2.93,2.93,0,0,0,.93-.53,2.5,2.5,0,0,0,.63-.83,2.55,2.55,0,0,0,.23-1.11,2.47,2.47,0,0,0-.22-1.08,2.32,2.32,0,0,0-.62-.8,2.84,2.84,0,0,0-.91-.5,3.66,3.66,0,0,0-1.08-.19Z"/><path class="cls-1" d="M321.34,65.65a9.54,9.54,0,0,1-.11,1.33,7.36,7.36,0,0,1-.33,1.32,6.22,6.22,0,0,1-.57,1.2,4.31,4.31,0,0,1-.81,1,3.6,3.6,0,0,1-1.09.66,3.78,3.78,0,0,1-3.85-.66,4.25,4.25,0,0,1-.83-1,6.18,6.18,0,0,1-.57-1.2,7.64,7.64,0,0,1-.33-1.31,9,9,0,0,1-.12-1.33V64a9.13,9.13,0,0,1,.12-1.33,7.89,7.89,0,0,1,.33-1.32,6,6,0,0,1,.57-1.2,4.4,4.4,0,0,1,.82-1,3.63,3.63,0,0,1,1.09-.66,3.78,3.78,0,0,1,3.85.66,4.16,4.16,0,0,1,.82,1,6.34,6.34,0,0,1,.57,1.2,7.36,7.36,0,0,1,.33,1.32,9.59,9.59,0,0,1,.11,1.34Zm-1-1.71a9.79,9.79,0,0,0-.08-1.06,6.69,6.69,0,0,0-.23-1.08,5.7,5.7,0,0,0-.41-1A3.42,3.42,0,0,0,319,60a2.65,2.65,0,0,0-1.94-.78,2.64,2.64,0,0,0-1.09.22,2.8,2.8,0,0,0-.84.58,3.42,3.42,0,0,0-.61.84,5.7,5.7,0,0,0-.41,1,6.69,6.69,0,0,0-.23,1.08,9.74,9.74,0,0,0-.08,1.05v1.71a9,9,0,0,0,.08,1.06,7.18,7.18,0,0,0,.23,1.08,5.66,5.66,0,0,0,.41,1,3.42,3.42,0,0,0,.61.84,2.78,2.78,0,0,0,.84.58,2.92,2.92,0,0,0,2.2,0,2.8,2.8,0,0,0,.84-.58,3.42,3.42,0,0,0,.61-.84,5.43,5.43,0,0,0,.4-1,6.8,6.8,0,0,0,.22-1.08,10.4,10.4,0,0,0,.07-1.06Z"/><path class="cls-1" d="M328.44,65.85h-3.16V71.2h-1V58.4h3.61a5.24,5.24,0,0,1,1.59.27,3.93,3.93,0,0,1,1.31.73,3.41,3.41,0,0,1,.88,1.17,3.75,3.75,0,0,1,.32,1.59,3.45,3.45,0,0,1-.19,1.17,3.39,3.39,0,0,1-.52,1,3.74,3.74,0,0,1-.8.75,5.19,5.19,0,0,1-1,.55l2.92,5.48v.11h-1.1ZM325.27,65h2.79a3.19,3.19,0,0,0,1.12-.23,2.84,2.84,0,0,0,.9-.58,2.58,2.58,0,0,0,.6-.87,2.84,2.84,0,0,0,.22-1.12,2.91,2.91,0,0,0-.24-1.2,2.62,2.62,0,0,0-.65-.89,2.82,2.82,0,0,0-1-.56,4,4,0,0,0-1.2-.21h-2.57Z"/><path class="cls-1" d="M334.8,71.2V58.4h3.09a5.17,5.17,0,0,1,2.2.48,4.94,4.94,0,0,1,1.63,1.25,5.47,5.47,0,0,1,1,1.82,7.23,7.23,0,0,1,.37,2.22v1.26a7.23,7.23,0,0,1-.37,2.22,5.47,5.47,0,0,1-1,1.82,4.89,4.89,0,0,1-1.63,1.24,5.22,5.22,0,0,1-2.2.48Zm1.05-11.9v11h2a4,4,0,0,0,1.81-.42,3.86,3.86,0,0,0,1.3-1.08,4.82,4.82,0,0,0,.79-1.55,6.42,6.42,0,0,0,.28-1.83V64.15a6.35,6.35,0,0,0-.28-1.82,4.77,4.77,0,0,0-.79-1.54,3.89,3.89,0,0,0-1.3-1.07,4,4,0,0,0-1.81-.42Z"/><path class="cls-1" d="M352.5,65.07h-5.64v5.22h6.5v.91h-7.55V58.4h7.51v.92h-6.47v4.83h5.64Z"/><path class="cls-1" d="M360.84,65.85h-3.16V71.2h-1V58.4h3.61a5.24,5.24,0,0,1,1.59.27,3.93,3.93,0,0,1,1.31.73,3.41,3.41,0,0,1,.88,1.17,3.75,3.75,0,0,1,.32,1.59,3.45,3.45,0,0,1-.19,1.17,3.39,3.39,0,0,1-.52,1,3.74,3.74,0,0,1-.8.75,5.19,5.19,0,0,1-1,.55l2.92,5.48v.11h-1.1ZM357.68,65h2.79a3.19,3.19,0,0,0,1.12-.23,2.84,2.84,0,0,0,.9-.58,2.58,2.58,0,0,0,.6-.87,2.84,2.84,0,0,0,.22-1.12,2.91,2.91,0,0,0-.24-1.2,2.62,2.62,0,0,0-.65-.89,2.82,2.82,0,0,0-1-.56,4,4,0,0,0-1.2-.21h-2.57Z"/></g><path d="M303.66,19.4l2.58,7.24L309,19.4h1.38V32.2h-1V26.53l.08-5.72-2.84,7.54h-.69l-2.64-7.42.09,5.6V32.2h-1V19.4Z"/><path d="M319.6,28.63h-4.87l-1.13,3.57h-1.06l4.17-12.8h.95l4.13,12.8h-1.05ZM315,27.69h4.27L317.17,21Z"/><path d="M328.44,26.85h-3.16V32.2h-1V19.4h3.61a5.24,5.24,0,0,1,1.59.27,3.93,3.93,0,0,1,1.31.73,3.41,3.41,0,0,1,.88,1.17,3.75,3.75,0,0,1,.32,1.59,3.45,3.45,0,0,1-.19,1.17,3.39,3.39,0,0,1-.52,1,3.74,3.74,0,0,1-.8.75,5.19,5.19,0,0,1-1,.55l2.92,5.48v.11h-1.1ZM325.27,26h2.79a3.19,3.19,0,0,0,1.12-.23,2.84,2.84,0,0,0,.9-.58,2.58,2.58,0,0,0,.6-.87,2.84,2.84,0,0,0,.22-1.12,2.91,2.91,0,0,0-.24-1.2,2.62,2.62,0,0,0-.65-.89,2.82,2.82,0,0,0-1-.56,4,4,0,0,0-1.2-.21h-2.57Z"/><path d="M342.89,30.68a4.51,4.51,0,0,1-.83.77,4.68,4.68,0,0,1-1,.53,5.09,5.09,0,0,1-1.08.3,7,7,0,0,1-1.14.09,4.2,4.2,0,0,1-1.4-.24,4,4,0,0,1-1.15-.64,4.46,4.46,0,0,1-.89-1,5.93,5.93,0,0,1-.63-1.18,7.32,7.32,0,0,1-.38-1.32,7.85,7.85,0,0,1-.14-1.38V24.86a8.42,8.42,0,0,1,.13-1.34,7,7,0,0,1,.36-1.31,6,6,0,0,1,.6-1.17,4.3,4.3,0,0,1,.85-.94,3.82,3.82,0,0,1,2.5-.87,4.39,4.39,0,0,1,1.58.28,4,4,0,0,1,1.27.77,3.91,3.91,0,0,1,.88,1.19,4.56,4.56,0,0,1,.43,1.54h-1a4.88,4.88,0,0,0-.37-1.14,3.13,3.13,0,0,0-.64-.91,2.83,2.83,0,0,0-.91-.59,3.1,3.1,0,0,0-1.19-.22,2.84,2.84,0,0,0-1.11.21,2.92,2.92,0,0,0-.87.55,3.49,3.49,0,0,0-.64.81,5.14,5.14,0,0,0-.44,1,6.34,6.34,0,0,0-.25,1.07,8.5,8.5,0,0,0-.09,1.07v1.81a7.55,7.55,0,0,0,.1,1.1,6.58,6.58,0,0,0,.28,1.09,5.52,5.52,0,0,0,.47,1,3.59,3.59,0,0,0,.67.83,3,3,0,0,0,.89.56,3.06,3.06,0,0,0,1.13.22,6,6,0,0,0,.82,0,4.32,4.32,0,0,0,.82-.18,3.22,3.22,0,0,0,.75-.35,2.3,2.3,0,0,0,.6-.55V27h-3v-.91h4Z"/><path d="M345.74,19.4h7.41v.95h-3.21V31.27h3.21v.93h-7.41v-.93h3.11V20.35h-3.11Z"/><path d="M364.24,32.2h-1l-5.87-10.8V32.2h-1V19.4h1l5.87,10.78V19.4h1Z"/><g class="cls-2"><line class="cls-3" x1="130.4" y1="140" x2="130.4" y2="365"/><line class="cls-4" x1="130.4" y1="154.35" x2="130.4" y2="365"/><polygon points="120.43 157.27 130.4 140 140.37 157.27 120.43 157.27"/></g><g class="cls-2"><line class="cls-5" x1="360" y1="376" x2="135" y2="376"/><line class="cls-4" x1="345.65" y1="376" x2="135" y2="376"/><polygon points="342.73 366.03 360 376 342.73 385.97 342.73 366.03"/></g><line class="cls-6" x1="130.4" y1="83" x2="130.4" y2="118"/><line class="cls-4" x1="130.4" y1="90.18" x2="130.4" y2="110.82"/><polygon points="125.41 91.64 130.4 83 135.39 91.64 125.41 91.64"/><polygon points="125.41 109.36 130.4 118 135.39 109.36 125.41 109.36"/><line class="cls-7" x1="130.4" x2="130.4" y2="48"/><line class="cls-4" x1="130.4" y1="7.18" x2="130.4" y2="40.82"/><polygon points="125.41 8.63 130.4 0 135.39 8.63 125.41 8.63"/><polygon points="125.41 39.37 130.4 48 135.39 39.37 125.41 39.37"/><g class="cls-2"><line x1="130.4" y1="54" x2="130.4" y2="77"/><line class="cls-8" x1="130.4" y1="61.18" x2="130.4" y2="69.82"/><polygon class="cls-1" points="125.41 62.63 130.4 54 135.39 62.63 125.41 62.63"/><polygon class="cls-1" points="125.41 68.36 130.4 77 135.39 68.36 125.41 68.36"/></g><g class="cls-2"><path d="M303.66,492.4l2.58,7.24L309,492.4h1.38v12.8h-1v-5.67l.08-5.72-2.84,7.54h-.69l-2.64-7.42.09,5.6v5.67h-1V492.4Z"/><path d="M319.6,501.63h-4.87l-1.13,3.57h-1.06l4.17-12.8h.95l4.13,12.8h-1.05Zm-4.57-.94h4.27L317.17,494Z"/><path d="M328.44,499.85h-3.16v5.35h-1V492.4h3.61a5.24,5.24,0,0,1,1.59.27,3.93,3.93,0,0,1,1.31.73,3.41,3.41,0,0,1,.88,1.17,3.75,3.75,0,0,1,.32,1.59,3.45,3.45,0,0,1-.19,1.17,3.39,3.39,0,0,1-.52,1,3.74,3.74,0,0,1-.8.75,5.19,5.19,0,0,1-1,.55l2.92,5.48v.11h-1.1Zm-3.16-.89h2.79a3.19,3.19,0,0,0,1.12-.23,2.84,2.84,0,0,0,.9-.58,2.58,2.58,0,0,0,.6-.87,2.84,2.84,0,0,0,.22-1.12,2.91,2.91,0,0,0-.24-1.2,2.62,2.62,0,0,0-.65-.89,2.82,2.82,0,0,0-1-.56,4,4,0,0,0-1.2-.21h-2.57Z"/><path d="M342.89,503.68a4.51,4.51,0,0,1-.83.77,4.68,4.68,0,0,1-1,.53,5.09,5.09,0,0,1-1.08.3,7,7,0,0,1-1.14.09,4.2,4.2,0,0,1-1.4-.24,4,4,0,0,1-1.15-.64,4.46,4.46,0,0,1-.89-1,5.93,5.93,0,0,1-.63-1.18,7.32,7.32,0,0,1-.38-1.32,7.85,7.85,0,0,1-.14-1.38v-1.79a8.42,8.42,0,0,1,.13-1.34,7,7,0,0,1,.36-1.31,6,6,0,0,1,.6-1.17,4.3,4.3,0,0,1,.85-.94,3.82,3.82,0,0,1,2.5-.87,4.39,4.39,0,0,1,1.58.28,4,4,0,0,1,1.27.77,3.91,3.91,0,0,1,.88,1.19,4.56,4.56,0,0,1,.43,1.54h-1a4.88,4.88,0,0,0-.37-1.14,3.13,3.13,0,0,0-.64-.91,2.83,2.83,0,0,0-.91-.59,3.1,3.1,0,0,0-1.19-.22,2.84,2.84,0,0,0-1.11.21,2.92,2.92,0,0,0-.87.55,3.49,3.49,0,0,0-.64.81,5.14,5.14,0,0,0-.44,1,6.34,6.34,0,0,0-.25,1.07,8.5,8.5,0,0,0-.09,1.07v1.81a7.55,7.55,0,0,0,.1,1.1,6.58,6.58,0,0,0,.28,1.09,5.52,5.52,0,0,0,.47,1,3.59,3.59,0,0,0,.67.83,3,3,0,0,0,.89.56,3.06,3.06,0,0,0,1.13.22,6,6,0,0,0,.82,0,4.32,4.32,0,0,0,.82-.18,3.22,3.22,0,0,0,.75-.35,2.3,2.3,0,0,0,.6-.55V500h-3v-.91h4Z"/><path d="M345.74,492.4h7.41v.95h-3.21v10.92h3.21v.93h-7.41v-.93h3.11V493.35h-3.11Z"/><path d="M364.24,505.2h-1l-5.87-10.8v10.8h-1V492.4h1l5.87,10.78V492.4h1Z"/></g><g class="cls-2"><line class="cls-9" x1="130.4" y1="473" x2="130.4" y2="521"/><line class="cls-4" x1="130.4" y1="480.18" x2="130.4" y2="513.82"/><polygon points="125.41 481.63 130.4 473 135.39 481.63 125.41 481.63"/><polygon points="125.41 512.37 130.4 521 135.39 512.37 125.41 512.37"/></g></g></g></svg>