<svg xmlns="http://www.w3.org/2000/svg" viewBox="0 0 198.59 111.44"><title>google_developer_1</title><g id="Layer_2" data-name="Layer 2"><g id="Layer_1-2" data-name="Layer 1"><rect width="198.59" height="111.44" style="fill:#fff"/></g><g id="Layer_4" data-name="Layer 4"><g id="DHUFg8.tif"><path d="M68.68,58.2,91.1,97.1H63.91C56.57,84.52,49.06,72,42.1,59.26c-1.08-2,.35-5.32.61-8,2,.26,4,.44,6,.81,6.22,1.17,12.43,2.42,18.65,3.63l1,2A1.79,1.79,0,0,0,68.68,58.2Z" style="fill:#4787f6"/><path d="M131,55.66,114.06,26l1.88-12.31,18.46.73.52.72,10,18.55a21.11,21.11,0,0,0-2.65,3.57c-2.31,5-4.26,10.21-6.78,15.11C134.73,53.81,132.55,54.57,131,55.66Z" style="fill:#04a15c"/><path d="M53.85,31.83c3.08-5.48,6.11-11,9.29-16.4a3.86,3.86,0,0,1,2.54-1.87c8.43-.14,16.87-.08,26.29-.08L71.26,48.74c-3.07-3-6.06-6.17-9.22-9.11-1.93-1.8-4.12-3.33-6.19-5l.07,0-.72-1Z" style="fill:#df5445"/><path d="M144.74,79.54,134.45,97.09H107.24l23.63-40.74,1,1.76.68,1.08.4.77c-.86,1.66-2.86,4.32-2.41,4.82,4,4.52,8.39,8.66,12.67,12.92l0,.07.53.77Z" style="fill:#fec202"/><path d="M131.85,58.12l-1-1.76a1.35,1.35,0,0,1,.13-.69c1.54-1.09,3.73-1.85,4.49-3.34,2.52-4.9,4.47-10.1,6.78-15.11a21.11,21.11,0,0,1,2.65-3.57c3.82,6.13,8,12.1,11.29,18.48a9.76,9.76,0,0,1-.18,7.75c-3.39,6.74-7.48,13.13-11.29,19.66l-1-1-.53-.77,0-.07L132.94,60l-.4-.77Z" style="fill:#049f58"/><path d="M53.85,31.83l1.34,1.83.72,1-.07,0L67.51,55.07a.78.78,0,0,1-.17.61C61.12,54.46,54.91,53.22,48.69,52c-2-.37-4-.54-6-.81Z" style="fill:#4d8bf6"/><path d="M67.51,55.07,55.84,34.64c2.07,1.65,4.26,3.18,6.19,5,3.16,2.94,6.16,6.07,9.22,9.11Z" style="fill:#c74f43"/><path d="M115.94,13.64,114.06,26l-7.6-12.31Z" style="fill:#10a462"/><path d="M63.91,97.09H91.1a9.33,9.33,0,0,1-2.61.83q-11,.1-21.92,0A9.65,9.65,0,0,1,63.91,97.09Z" style="fill:#3c76e5"/><path d="M107.24,97.09h27.21a7,7,0,0,1-2.22.84q-11.43.09-22.86,0A6.59,6.59,0,0,1,107.24,97.09Z" style="fill:#f6ac00"/><path d="M134.92,15.1l-.52-.72Z" style="fill:#10a462"/><path d="M68.68,58.2a1.79,1.79,0,0,1-.38-.54A.41.41,0,0,1,68.68,58.2Z" style="fill:#4d8bf6"/><path d="M55.91,34.67l-.72-1Z" style="fill:#c74f43"/><path d="M132.94,60l10.25,17.74c-4.28-4.25-8.69-8.4-12.67-12.92C130.08,64.28,132.07,61.63,132.94,60Z" style="fill:#f2b402"/><path d="M131.85,58.12l.68,1.08Z" style="fill:#f2b402"/><path d="M143.22,77.78l.53.77Z" style="fill:#f2b402"/></g></g></g></svg>