<svg id="Layer_1" data-name="Layer 1" xmlns="http://www.w3.org/2000/svg" xmlns:xlink="http://www.w3.org/1999/xlink" viewBox="0 0 629.87 706"><defs><linearGradient id="linear-gradient" y1="611" x2="194" y2="611" gradientTransform="matrix(1, 0, 0, -1, 0, 708)" gradientUnits="userSpaceOnUse"><stop offset="0" stop-color="#ffab00"/><stop offset="1" stop-color="#ffd740"/></linearGradient><linearGradient id="linear-gradient-2" x1="217.93" x2="411.93" xlink:href="#linear-gradient"/><linearGradient id="linear-gradient-3" x1="435.87" x2="629.87" xlink:href="#linear-gradient"/><linearGradient id="linear-gradient-4" y1="293" y2="293" xlink:href="#linear-gradient"/><linearGradient id="linear-gradient-5" x1="217.93" y1="293" x2="411.93" y2="293" xlink:href="#linear-gradient"/><linearGradient id="linear-gradient-6" x1="435.87" y1="293" x2="629.87" y2="293" xlink:href="#linear-gradient"/><linearGradient id="linear-gradient-7" x1="30" y1="99" x2="164" y2="99" xlink:href="#linear-gradient"/><linearGradient id="linear-gradient-8" x1="247.93" y1="99" x2="381.93" y2="99" xlink:href="#linear-gradient"/><linearGradient id="linear-gradient-9" x1="465.87" y1="99" x2="599.87" y2="99" xlink:href="#linear-gradient"/></defs><title>position1</title><g id="Layer_2" data-name="Layer 2"><g id="Layer_1-2" data-name="Layer 1-2"><rect width="194" height="194" style="fill:url(#linear-gradient)"/><rect x="217.93" width="194" height="194" style="fill:url(#linear-gradient-2)"/><rect x="435.87" width="194" height="194" style="fill:url(#linear-gradient-3)"/><rect y="318" width="194" height="194" style="fill:url(#linear-gradient-4)"/><rect x="217.93" y="318" width="194" height="194" style="fill:url(#linear-gradient-5)"/><rect x="435.87" y="318" width="194" height="194" style="fill:url(#linear-gradient-6)"/><rect x="96.57" y="214" width="0.86" height="38.14"/><rect x="96.57" y="259" width="0.86" height="39"/><polygon points="97.1 246 102 246 99.55 250.24 97.1 254.49 94.65 250.24 92.2 246 97.1 246"/><polygon points="97.1 262 92.2 262 94.65 257.76 97.1 253.51 99.55 257.76 102 262 97.1 262"/><path d="M52.34,199.8l1.72,4.83,1.83-4.83h.92v8.53h-.69v-3.78l0-3.81-1.89,5h-.46l-1.76-4.95.06,3.73v3.78h-.69v-8.5Z"/><path d="M63.15,208.33a2.54,2.54,0,0,1-.1-.43v-.48a2.63,2.63,0,0,1-.42.41,2.92,2.92,0,0,1-.52.33,3,3,0,0,1-.61.22,2.92,2.92,0,0,1-.69.08,2.59,2.59,0,0,1-.83-.13,2.08,2.08,0,0,1-.67-.36,1.65,1.65,0,0,1-.61-1.31,1.7,1.7,0,0,1,.24-.93,1.85,1.85,0,0,1,.65-.62,3.16,3.16,0,0,1,1-.35,5.58,5.58,0,0,1,1.13-.11H63v-.72a1.46,1.46,0,0,0-.14-.63,1.33,1.33,0,0,0-.37-.46,1.59,1.59,0,0,0-.55-.28,2.46,2.46,0,0,0-.69-.09,2.35,2.35,0,0,0-.65.09,1.84,1.84,0,0,0-.54.25,1.34,1.34,0,0,0-.38.4,1.08,1.08,0,0,0-.16.54h-.7A1.6,1.6,0,0,1,59,203a2,2,0,0,1,.53-.59,2.61,2.61,0,0,1,.78-.39,3.11,3.11,0,0,1,1-.14,3.37,3.37,0,0,1,1,.13,2.22,2.22,0,0,1,.77.39,1.86,1.86,0,0,1,.52.64,2.07,2.07,0,0,1,.2.9V207a3.75,3.75,0,0,0,.06.64,6.19,6.19,0,0,0,.14.62v.07Zm-2.31-.5a2.47,2.47,0,0,0,.71-.09,2.54,2.54,0,0,0,.62-.26,2.26,2.26,0,0,0,.5-.4,1.83,1.83,0,0,0,.34-.51v-1.39H61.72a5.48,5.48,0,0,0-.89.07,2.7,2.7,0,0,0-.76.23,1.4,1.4,0,0,0-.52.43,1.23,1.23,0,0,0-.08,1.19,1.2,1.2,0,0,0,.32.39,1.41,1.41,0,0,0,.47.25A1.92,1.92,0,0,0,60.84,207.83Z"/><path d="M70.19,201.88a4.34,4.34,0,0,1,.53,0,2.3,2.3,0,0,1,.44.09l-.09.67-.49-.08h-.5a2.63,2.63,0,0,0-1.51.42,2.25,2.25,0,0,0-.87,1.29v4.05H67V202h.67v1.23a2.81,2.81,0,0,1,1-1A3,3,0,0,1,70.19,201.88Z"/><path d="M73,205.11a4.79,4.79,0,0,1,.15-1.22,3.19,3.19,0,0,1,.47-1,2.37,2.37,0,0,1,.79-.71,2.35,2.35,0,0,1,3,.73V202h.66v6.23a3.21,3.21,0,0,1-.18,1.07,2.36,2.36,0,0,1-.51.83,2.29,2.29,0,0,1-.8.54,2.74,2.74,0,0,1-1.05.19,2.88,2.88,0,0,1-1.18-.26,3,3,0,0,1-.56-.34,2.19,2.19,0,0,1-.47-.48l.39-.42a2.24,2.24,0,0,0,1.77.91,2.07,2.07,0,0,0,.8-.15,1.6,1.6,0,0,0,.59-.41,1.83,1.83,0,0,0,.36-.64,2.65,2.65,0,0,0,.13-.82v-.72a2.25,2.25,0,0,1-.82.68,2.41,2.41,0,0,1-1.08.24,2.17,2.17,0,0,1-1.1-.27,2.4,2.4,0,0,1-.78-.72,3.27,3.27,0,0,1-.47-1,4.64,4.64,0,0,1-.16-1.2Zm.7.12a4.4,4.4,0,0,0,.1.94,2.69,2.69,0,0,0,.33.84,1.81,1.81,0,0,0,.6.6,1.68,1.68,0,0,0,.9.23,2,2,0,0,0,.57-.08,1.86,1.86,0,0,0,.9-.58,2,2,0,0,0,.3-.47v-3a2.41,2.41,0,0,0-.29-.49,1.87,1.87,0,0,0-.39-.38,1.83,1.83,0,0,0-.49-.25,1.81,1.81,0,0,0-.58-.09,1.68,1.68,0,0,0-.91.23,1.87,1.87,0,0,0-.6.6,2.65,2.65,0,0,0-.33.84,4.4,4.4,0,0,0-.1.94Z"/><path d="M80.56,202H83.5v5.72h2.16v.62h-5.1v-.62H82.8v-5.09H80.56Zm2-1.73a.59.59,0,0,1,.12-.37.61.61,0,0,1,.82,0,.58.58,0,0,1,.13.38.56.56,0,0,1-.13.36.62.62,0,0,1-.82,0,.56.56,0,0,1-.09-.38Z"/><path d="M88.24,202l.05,1.19a2.64,2.64,0,0,1,.89-.95,2.34,2.34,0,0,1,1.27-.36,2,2,0,0,1,1.59.62,2.61,2.61,0,0,1,.56,1.77v4.06h-.7v-4a2,2,0,0,0-.4-1.34,1.49,1.49,0,0,0-1.22-.46,1.89,1.89,0,0,0-.65.11,2.12,2.12,0,0,0-.56.3,2.28,2.28,0,0,0-.45.46,2.5,2.5,0,0,0-.32.57v4.4h-.7V202Z"/><path d="M99.35,204.81H95v-.59h4.34Z"/><path d="M102,208.33V199.8h2.33a4,4,0,0,1,1,.14,2.68,2.68,0,0,1,.87.4,2.07,2.07,0,0,1,.61.69,2,2,0,0,1,.23,1,1.81,1.81,0,0,1-.11.65,1.78,1.78,0,0,1-.3.52,2,2,0,0,1-.45.39,2.85,2.85,0,0,1-.56.28,2.51,2.51,0,0,1,.68.27,2.06,2.06,0,0,1,.9,1.05,2,2,0,0,1,.13.73,2.21,2.21,0,0,1-.21,1,2.26,2.26,0,0,1-.59.75,2.65,2.65,0,0,1-.85.47,3.24,3.24,0,0,1-1,.17Zm.7-4.71h1.72a2.73,2.73,0,0,0,.71-.11,1.88,1.88,0,0,0,.61-.3,1.54,1.54,0,0,0,.43-.5,1.63,1.63,0,0,0,0-1.44,1.44,1.44,0,0,0-.45-.49,2,2,0,0,0-.64-.28,3.16,3.16,0,0,0-.73-.1H102.7Zm0,.6v3.49h2a2.28,2.28,0,0,0,.74-.13,2,2,0,0,0,.62-.35,1.66,1.66,0,0,0,.42-.55,1.7,1.7,0,0,0,.16-.74,1.65,1.65,0,0,0-.15-.72,1.54,1.54,0,0,0-.41-.53,1.89,1.89,0,0,0-.6-.33,2.44,2.44,0,0,0-.72-.13Z"/><path d="M108.84,205.07a4,4,0,0,1,.2-1.22,3.14,3.14,0,0,1,.55-1,2.78,2.78,0,0,1,3.26-.69,2.68,2.68,0,0,1,.89.69,3.11,3.11,0,0,1,.56,1,4,4,0,0,1,.2,1.22v.19a4,4,0,0,1-.2,1.22,3.07,3.07,0,0,1-.55,1,2.61,2.61,0,0,1-2.07.95,2.69,2.69,0,0,1-1.19-.25,2.64,2.64,0,0,1-.89-.69,3.11,3.11,0,0,1-.56-1,4,4,0,0,1-.2-1.22Zm.7.19a3.37,3.37,0,0,0,.14,1,2.63,2.63,0,0,0,.41.83,2,2,0,0,0,.67.58,1.94,1.94,0,0,0,2.49-.58,2.67,2.67,0,0,0,.41-.83,3.37,3.37,0,0,0,.14-1v-.19a3.35,3.35,0,0,0-.14-1,2.63,2.63,0,0,0-.41-.83,2.08,2.08,0,0,0-.67-.58,2,2,0,0,0-1.83,0,2.06,2.06,0,0,0-.66.58,2.67,2.67,0,0,0-.41.83,3.35,3.35,0,0,0-.14,1Z"/><path d="M118.74,200.37V202h2.35v.57h-2.35v4a1.57,1.57,0,0,0,.11.61,1,1,0,0,0,.29.39,1.13,1.13,0,0,0,.43.21,2.16,2.16,0,0,0,.54.06,4.54,4.54,0,0,0,.6,0l.52-.08.11.53a2.68,2.68,0,0,1-.62.15,5.43,5.43,0,0,1-.74,0,2.82,2.82,0,0,1-.78-.1,1.64,1.64,0,0,1-.62-.33,1.55,1.55,0,0,1-.42-.59,2.33,2.33,0,0,1-.16-.88v-4h-1.76V202H118v-1.62Z"/><path d="M125.94,200.37V202h2.35v.57h-2.35v4a1.57,1.57,0,0,0,.11.61,1,1,0,0,0,.29.39,1.13,1.13,0,0,0,.43.21,2.16,2.16,0,0,0,.54.06,4.54,4.54,0,0,0,.6,0l.52-.08.11.53a2.68,2.68,0,0,1-.62.15,5.43,5.43,0,0,1-.74,0,2.82,2.82,0,0,1-.78-.1,1.64,1.64,0,0,1-.62-.33,1.55,1.55,0,0,1-.42-.59,2.33,2.33,0,0,1-.16-.88v-4h-1.76V202h1.76v-1.62Z"/><path d="M130.44,205.07a4,4,0,0,1,.2-1.22,3.14,3.14,0,0,1,.55-1,2.78,2.78,0,0,1,3.26-.69,2.68,2.68,0,0,1,.89.69,3.11,3.11,0,0,1,.56,1,4,4,0,0,1,.2,1.22v.19a4,4,0,0,1-.2,1.22,3.07,3.07,0,0,1-.55,1,2.61,2.61,0,0,1-2.07.95,2.69,2.69,0,0,1-1.19-.25,2.64,2.64,0,0,1-.89-.69,3.11,3.11,0,0,1-.56-1,4,4,0,0,1-.2-1.22Zm.7.19a3.37,3.37,0,0,0,.14,1,2.63,2.63,0,0,0,.41.83,2,2,0,0,0,.67.58,1.94,1.94,0,0,0,2.49-.58,2.67,2.67,0,0,0,.41-.83,3.37,3.37,0,0,0,.14-1v-.19a3.35,3.35,0,0,0-.14-1,2.63,2.63,0,0,0-.41-.83,2.08,2.08,0,0,0-.67-.58,2,2,0,0,0-1.83,0,2.06,2.06,0,0,0-.66.58,2.67,2.67,0,0,0-.41.83,3.35,3.35,0,0,0-.14,1Z"/><path d="M138,202v.71a1.59,1.59,0,0,1,.53-.59,1.53,1.53,0,0,1,.85-.23,1.69,1.69,0,0,1,.48.06,1.16,1.16,0,0,1,.36.17,1.08,1.08,0,0,1,.26.27,1.47,1.47,0,0,1,.17.34,1.73,1.73,0,0,1,.55-.59,1.54,1.54,0,0,1,.87-.24,1.5,1.5,0,0,1,.69.14,1.21,1.21,0,0,1,.45.38,1.56,1.56,0,0,1,.24.56,3,3,0,0,1,.07.67v4.71h-.66v-4.71a2.09,2.09,0,0,0,0-.41,1.09,1.09,0,0,0-.14-.37.75.75,0,0,0-.29-.26,1,1,0,0,0-.47-.09,1.31,1.31,0,0,0-.5.09,1,1,0,0,0-.33.23,1.06,1.06,0,0,0-.21.31,1.79,1.79,0,0,0-.11.35v4.86h-.66v-4.78a1.89,1.89,0,0,0,0-.39,1,1,0,0,0-.14-.35.75.75,0,0,0-.28-.25,1,1,0,0,0-.46-.09,1.31,1.31,0,0,0-.48.09,1,1,0,0,0-.33.22,1.09,1.09,0,0,0-.21.32,2.19,2.19,0,0,0-.13.37v4.85h-.66V202Z"/><path d="M63.79,302.8l1.72,4.83,1.83-4.83h.92v8.53h-.69v-3.78l.05-3.81-1.89,5h-.46l-1.76-5,.06,3.73v3.78h-.69v-8.5Z"/><path d="M74.6,311.33a2.54,2.54,0,0,1-.1-.43v-.48a2.63,2.63,0,0,1-.42.41,2.92,2.92,0,0,1-.52.33,3,3,0,0,1-.61.22,2.92,2.92,0,0,1-.69.08,2.59,2.59,0,0,1-.83-.13,2.08,2.08,0,0,1-.67-.36,1.65,1.65,0,0,1-.61-1.31,1.7,1.7,0,0,1,.24-.93,1.85,1.85,0,0,1,.65-.62,3.16,3.16,0,0,1,.95-.35,5.58,5.58,0,0,1,1.13-.11h1.37v-.72a1.46,1.46,0,0,0-.14-.63,1.33,1.33,0,0,0-.37-.46,1.59,1.59,0,0,0-.55-.28,2.46,2.46,0,0,0-.69-.09,2.35,2.35,0,0,0-.65.09,1.84,1.84,0,0,0-.54.25,1.34,1.34,0,0,0-.38.4,1.08,1.08,0,0,0-.16.54h-.7a1.6,1.6,0,0,1,.21-.74,2,2,0,0,1,.53-.59,2.61,2.61,0,0,1,.78-.39,3.11,3.11,0,0,1,.95-.14,3.37,3.37,0,0,1,.95.13,2.22,2.22,0,0,1,.77.39,1.86,1.86,0,0,1,.5.59,2.07,2.07,0,0,1,.2.9V310a3.75,3.75,0,0,0,.06.64,6.19,6.19,0,0,0,.14.62v.07Zm-2.31-.5a2.47,2.47,0,0,0,.71-.09,2.54,2.54,0,0,0,.62-.26,2.26,2.26,0,0,0,.5-.4,1.83,1.83,0,0,0,.34-.51v-1.39H73.17a5.48,5.48,0,0,0-.89.07,2.7,2.7,0,0,0-.76.23,1.4,1.4,0,0,0-.52.43,1.23,1.23,0,0,0-.08,1.19,1.2,1.2,0,0,0,.32.39,1.41,1.41,0,0,0,.47.25A1.92,1.92,0,0,0,72.29,310.83Z"/><path d="M81.64,304.88a4.34,4.34,0,0,1,.53,0,2.3,2.3,0,0,1,.44.09l-.09.67-.49-.08h-.5A2.63,2.63,0,0,0,80,306a2.25,2.25,0,0,0-.87,1.29v4H78.4V305h.67v1.23a2.81,2.81,0,0,1,1-1A3,3,0,0,1,81.64,304.88Z"/><path d="M84.45,308.11a4.79,4.79,0,0,1,.15-1.22,3.19,3.19,0,0,1,.47-1,2.37,2.37,0,0,1,.79-.71,2.35,2.35,0,0,1,3,.73V305h.66v6.23a3.21,3.21,0,0,1-.18,1.07,2.36,2.36,0,0,1-.51.83,2.29,2.29,0,0,1-.8.54,2.74,2.74,0,0,1-1.05.19,2.88,2.88,0,0,1-1.18-.26,3,3,0,0,1-.56-.34,2.19,2.19,0,0,1-.47-.48l.39-.42a2.24,2.24,0,0,0,1.77.91,2.07,2.07,0,0,0,.8-.15,1.6,1.6,0,0,0,.59-.41,1.83,1.83,0,0,0,.36-.64,2.65,2.65,0,0,0,.13-.82v-.72a2.25,2.25,0,0,1-.82.68,2.41,2.41,0,0,1-1.08.24,2.17,2.17,0,0,1-1.1-.27,2.4,2.4,0,0,1-.78-.72,3.27,3.27,0,0,1-.47-1,4.64,4.64,0,0,1-.16-1.2Zm.7.12a4.4,4.4,0,0,0,.1.94,2.69,2.69,0,0,0,.33.84,1.81,1.81,0,0,0,.6.6,1.68,1.68,0,0,0,.9.23,2,2,0,0,0,.57-.08,1.86,1.86,0,0,0,.9-.58,2,2,0,0,0,.3-.47v-3a2.41,2.41,0,0,0-.29-.49,1.87,1.87,0,0,0-.39-.38,1.83,1.83,0,0,0-.49-.25,1.81,1.81,0,0,0-.58-.09,1.68,1.68,0,0,0-.91.23,1.87,1.87,0,0,0-.6.6,2.65,2.65,0,0,0-.33.84,4.4,4.4,0,0,0-.1.94Z"/><path d="M92,305h3v5.72h2.16v.62H92v-.62h2.24v-5.09H92Zm2-1.73a.59.59,0,0,1,.12-.37.61.61,0,0,1,.82,0,.58.58,0,0,1,.13.38.56.56,0,0,1-.13.36.62.62,0,0,1-.82,0,.56.56,0,0,1-.12-.38Z"/><path d="M99.69,305l.05,1.19a2.64,2.64,0,0,1,.89-1,2.34,2.34,0,0,1,1.27-.36,2,2,0,0,1,1.59.62,2.61,2.61,0,0,1,.56,1.77v4.06h-.7v-4a2,2,0,0,0-.4-1.34,1.49,1.49,0,0,0-1.22-.46,1.89,1.89,0,0,0-.65.11,2.12,2.12,0,0,0-.56.3,2.28,2.28,0,0,0-.45.46,2.5,2.5,0,0,0-.32.57v4.4H99V305Z"/><path d="M110.8,307.81h-4.34v-.59h4.34Z"/><path d="M115.79,303.37V305h2.35v.57h-2.35v4a1.57,1.57,0,0,0,.11.61,1,1,0,0,0,.29.39,1.13,1.13,0,0,0,.43.21,2.16,2.16,0,0,0,.54.06,4.54,4.54,0,0,0,.6,0l.52-.08.11.53a2.68,2.68,0,0,1-.62.15,5.43,5.43,0,0,1-.74,0,2.82,2.82,0,0,1-.78-.1,1.64,1.64,0,0,1-.62-.33,1.55,1.55,0,0,1-.42-.59,2.33,2.33,0,0,1-.16-.88v-4h-1.76V305H115v-1.62Z"/><path d="M120.29,308.07a4,4,0,0,1,.2-1.22,3.14,3.14,0,0,1,.55-1,2.78,2.78,0,0,1,3.26-.69,2.68,2.68,0,0,1,.89.69,3.11,3.11,0,0,1,.56,1,4,4,0,0,1,.2,1.22v.19a4,4,0,0,1-.2,1.22,3.07,3.07,0,0,1-.55,1,2.61,2.61,0,0,1-2.07,1,2.69,2.69,0,0,1-1.19-.25,2.64,2.64,0,0,1-.89-.69,3.11,3.11,0,0,1-.56-1,4,4,0,0,1-.2-1.22Zm.7.19a3.37,3.37,0,0,0,.14,1,2.63,2.63,0,0,0,.41.83,2.05,2.05,0,0,0,.67.58,1.94,1.94,0,0,0,2.49-.58,2.67,2.67,0,0,0,.41-.83,3.37,3.37,0,0,0,.14-1v-.19a3.35,3.35,0,0,0-.14-1,2.63,2.63,0,0,0-.41-.83,2.08,2.08,0,0,0-.67-.58,2,2,0,0,0-1.83,0,2.06,2.06,0,0,0-.66.58,2.67,2.67,0,0,0-.41.83,3.35,3.35,0,0,0-.14,1Z"/><path d="M133,308.23a4.81,4.81,0,0,1-.15,1.2,3.22,3.22,0,0,1-.46,1,2.38,2.38,0,0,1-.78.72,2.18,2.18,0,0,1-1.11.27,2.54,2.54,0,0,1-1.08-.23,2.2,2.2,0,0,1-.83-.66v3.21h-.7V305h.66v.87a2.35,2.35,0,0,1,.82-.73,2.3,2.3,0,0,1,1.1-.26,2.2,2.2,0,0,1,1.9,1,3.25,3.25,0,0,1,.45,1,4.88,4.88,0,0,1,.15,1.22Zm-.7-.12a4.28,4.28,0,0,0-.11-.94,2.66,2.66,0,0,0-.34-.84,1.88,1.88,0,0,0-.61-.6,1.69,1.69,0,0,0-.91-.23,1.87,1.87,0,0,0-.57.08,1.77,1.77,0,0,0-.49.24,2,2,0,0,0-.39.37,2.19,2.19,0,0,0-.29.47v3.14a1.91,1.91,0,0,0,.7.78,1.93,1.93,0,0,0,1,.29,1.67,1.67,0,0,0,.91-.23,1.88,1.88,0,0,0,.6-.61,2.7,2.7,0,0,0,.34-.84,4.32,4.32,0,0,0,.11-1Z"/><rect x="309.57" y="214" width="0.86" height="38.14"/><rect x="309.57" y="259" width="0.86" height="39"/><polygon points="310.1 246 315 246 312.55 250.24 310.1 254.49 307.65 250.24 305.2 246 310.1 246"/><polygon points="310.1 262 305.2 262 307.65 257.76 310.1 253.51 312.55 257.76 315 262 310.1 262"/><path d="M265.34,199.8l1.72,4.83,1.83-4.83h.92v8.53h-.69v-3.78l0-3.81-1.89,5h-.46l-1.76-4.95.06,3.73v3.78h-.69v-8.5Z"/><path d="M276.15,208.33a2.54,2.54,0,0,1-.1-.43v-.48a2.63,2.63,0,0,1-.42.41,2.92,2.92,0,0,1-.52.33,3,3,0,0,1-.61.22,2.92,2.92,0,0,1-.69.08,2.59,2.59,0,0,1-.83-.13,2.08,2.08,0,0,1-.67-.36,1.65,1.65,0,0,1-.61-1.31,1.7,1.7,0,0,1,.24-.93,1.85,1.85,0,0,1,.65-.62,3.16,3.16,0,0,1,1-.35,5.58,5.58,0,0,1,1.13-.11H276v-.72a1.46,1.46,0,0,0-.14-.63,1.33,1.33,0,0,0-.37-.46,1.59,1.59,0,0,0-.55-.28,2.46,2.46,0,0,0-.69-.09,2.35,2.35,0,0,0-.65.09,1.84,1.84,0,0,0-.54.25,1.34,1.34,0,0,0-.38.4,1.08,1.08,0,0,0-.16.54h-.7A1.6,1.6,0,0,1,272,203a2,2,0,0,1,.53-.59,2.61,2.61,0,0,1,.78-.39,3.11,3.11,0,0,1,1-.14,3.37,3.37,0,0,1,1,.13,2.22,2.22,0,0,1,.77.39,1.86,1.86,0,0,1,.52.64,2.07,2.07,0,0,1,.2.9V207a3.75,3.75,0,0,0,.06.64,6.19,6.19,0,0,0,.14.62v.07Zm-2.31-.5a2.47,2.47,0,0,0,.71-.09,2.54,2.54,0,0,0,.62-.26,2.26,2.26,0,0,0,.5-.4,1.83,1.83,0,0,0,.34-.51v-1.39h-1.28a5.48,5.48,0,0,0-.89.07,2.7,2.7,0,0,0-.76.23,1.4,1.4,0,0,0-.52.43,1.23,1.23,0,0,0-.08,1.19,1.2,1.2,0,0,0,.32.39,1.41,1.41,0,0,0,.47.25A1.92,1.92,0,0,0,273.84,207.83Z"/><path d="M283.19,201.88a4.34,4.34,0,0,1,.53,0,2.3,2.3,0,0,1,.44.09l-.09.67-.49-.08h-.5a2.63,2.63,0,0,0-1.51.42,2.25,2.25,0,0,0-.87,1.29v4.05H280V202h.67v1.23a2.81,2.81,0,0,1,1-1A3,3,0,0,1,283.19,201.88Z"/><path d="M286,205.11a4.79,4.79,0,0,1,.15-1.22,3.19,3.19,0,0,1,.47-1,2.37,2.37,0,0,1,.79-.71,2.35,2.35,0,0,1,3,.73V202h.66v6.23a3.21,3.21,0,0,1-.18,1.07,2.36,2.36,0,0,1-.51.83,2.29,2.29,0,0,1-.8.54,2.74,2.74,0,0,1-1,.19,2.88,2.88,0,0,1-1.18-.26,3,3,0,0,1-.56-.34,2.19,2.19,0,0,1-.47-.48l.39-.42a2.24,2.24,0,0,0,1.77.91,2.07,2.07,0,0,0,.8-.15,1.6,1.6,0,0,0,.59-.41,1.83,1.83,0,0,0,.36-.64,2.65,2.65,0,0,0,.13-.82v-.72a2.25,2.25,0,0,1-.82.68,2.41,2.41,0,0,1-1.08.24,2.17,2.17,0,0,1-1.1-.27,2.4,2.4,0,0,1-.78-.72,3.27,3.27,0,0,1-.47-1,4.64,4.64,0,0,1-.16-1.2Zm.7.12a4.4,4.4,0,0,0,.1.94,2.69,2.69,0,0,0,.33.84,1.81,1.81,0,0,0,.6.6,1.68,1.68,0,0,0,.9.23,2,2,0,0,0,.57-.08,1.86,1.86,0,0,0,.9-.58,2,2,0,0,0,.3-.47v-3a2.41,2.41,0,0,0-.29-.49,1.87,1.87,0,0,0-.39-.38,1.83,1.83,0,0,0-.49-.25,1.81,1.81,0,0,0-.58-.09,1.68,1.68,0,0,0-.91.23,1.87,1.87,0,0,0-.6.6,2.65,2.65,0,0,0-.33.84,4.4,4.4,0,0,0-.1.94Z"/><path d="M293.56,202h2.94v5.72h2.16v.62h-5.1v-.62h2.24v-5.09h-2.24Zm2-1.73a.59.59,0,0,1,.12-.37.61.61,0,0,1,.82,0,.58.58,0,0,1,.13.38.56.56,0,0,1-.13.36.62.62,0,0,1-.82,0,.56.56,0,0,1-.09-.38Z"/><path d="M301.24,202l0,1.19a2.64,2.64,0,0,1,.89-.95,2.34,2.34,0,0,1,1.27-.36,2,2,0,0,1,1.59.62,2.61,2.61,0,0,1,.56,1.77v4.06h-.7v-4a2,2,0,0,0-.4-1.34,1.49,1.49,0,0,0-1.22-.46,1.89,1.89,0,0,0-.65.11,2.12,2.12,0,0,0-.56.3,2.28,2.28,0,0,0-.45.46,2.5,2.5,0,0,0-.32.57v4.4h-.7V202Z"/><path d="M312.35,204.81H308v-.59h4.34Z"/><path d="M315,208.33V199.8h2.33a4,4,0,0,1,1,.14,2.68,2.68,0,0,1,.87.4,2.07,2.07,0,0,1,.61.69,2,2,0,0,1,.23,1,1.81,1.81,0,0,1-.11.65,1.78,1.78,0,0,1-.3.52,2,2,0,0,1-.45.39,2.85,2.85,0,0,1-.56.28,2.51,2.51,0,0,1,.68.27,2.06,2.06,0,0,1,.9,1.05,2,2,0,0,1,.13.73,2.21,2.21,0,0,1-.21,1,2.26,2.26,0,0,1-.59.75,2.65,2.65,0,0,1-.85.47,3.24,3.24,0,0,1-1,.17Zm.7-4.71h1.72a2.73,2.73,0,0,0,.71-.11,1.88,1.88,0,0,0,.61-.3,1.54,1.54,0,0,0,.43-.5,1.63,1.63,0,0,0,0-1.44,1.44,1.44,0,0,0-.45-.49,2,2,0,0,0-.64-.28,3.16,3.16,0,0,0-.73-.1H315.7Zm0,.6v3.49h2a2.28,2.28,0,0,0,.74-.13,2,2,0,0,0,.62-.35,1.66,1.66,0,0,0,.42-.55,1.7,1.7,0,0,0,.16-.74,1.65,1.65,0,0,0-.15-.72,1.54,1.54,0,0,0-.41-.53,1.89,1.89,0,0,0-.6-.33,2.44,2.44,0,0,0-.72-.13Z"/><path d="M321.84,205.07a4,4,0,0,1,.2-1.22,3.14,3.14,0,0,1,.55-1,2.78,2.78,0,0,1,3.26-.69,2.68,2.68,0,0,1,.89.69,3.11,3.11,0,0,1,.56,1,4,4,0,0,1,.2,1.22v.19a4,4,0,0,1-.2,1.22,3.07,3.07,0,0,1-.55,1,2.61,2.61,0,0,1-2.07.95,2.69,2.69,0,0,1-1.19-.25,2.64,2.64,0,0,1-.89-.69,3.11,3.11,0,0,1-.56-1,4,4,0,0,1-.2-1.22Zm.7.19a3.37,3.37,0,0,0,.14,1,2.63,2.63,0,0,0,.41.83,2.05,2.05,0,0,0,.67.58,1.94,1.94,0,0,0,2.49-.58,2.67,2.67,0,0,0,.41-.83,3.37,3.37,0,0,0,.14-1v-.19a3.35,3.35,0,0,0-.14-1,2.63,2.63,0,0,0-.41-.83,2.08,2.08,0,0,0-.67-.58,2,2,0,0,0-1.83,0,2.06,2.06,0,0,0-.66.58,2.67,2.67,0,0,0-.41.83,3.35,3.35,0,0,0-.14,1Z"/><path d="M331.74,200.37V202h2.35v.57h-2.35v4a1.57,1.57,0,0,0,.11.61,1,1,0,0,0,.29.39,1.13,1.13,0,0,0,.43.21,2.16,2.16,0,0,0,.54.06,4.54,4.54,0,0,0,.6,0l.52-.08.11.53a2.68,2.68,0,0,1-.62.15,5.43,5.43,0,0,1-.74,0,2.82,2.82,0,0,1-.78-.1,1.64,1.64,0,0,1-.62-.33,1.55,1.55,0,0,1-.42-.59,2.33,2.33,0,0,1-.16-.88v-4h-1.76V202H331v-1.62Z"/><path d="M338.94,200.37V202h2.35v.57h-2.35v4a1.57,1.57,0,0,0,.11.61,1,1,0,0,0,.29.39,1.13,1.13,0,0,0,.43.21,2.16,2.16,0,0,0,.54.06,4.54,4.54,0,0,0,.6,0l.52-.08.11.53a2.68,2.68,0,0,1-.62.15,5.43,5.43,0,0,1-.74,0,2.82,2.82,0,0,1-.78-.1,1.64,1.64,0,0,1-.62-.33,1.55,1.55,0,0,1-.42-.59,2.33,2.33,0,0,1-.16-.88v-4h-1.76V202h1.76v-1.62Z"/><path d="M343.44,205.07a4,4,0,0,1,.2-1.22,3.14,3.14,0,0,1,.55-1,2.78,2.78,0,0,1,3.26-.69,2.68,2.68,0,0,1,.89.69,3.11,3.11,0,0,1,.56,1,4,4,0,0,1,.2,1.22v.19a4,4,0,0,1-.2,1.22,3.07,3.07,0,0,1-.55,1,2.61,2.61,0,0,1-2.07.95,2.69,2.69,0,0,1-1.19-.25,2.64,2.64,0,0,1-.89-.69,3.11,3.11,0,0,1-.56-1,4,4,0,0,1-.2-1.22Zm.7.19a3.37,3.37,0,0,0,.14,1,2.63,2.63,0,0,0,.41.83,2.05,2.05,0,0,0,.67.58,1.94,1.94,0,0,0,2.49-.58,2.67,2.67,0,0,0,.41-.83,3.37,3.37,0,0,0,.14-1v-.19a3.35,3.35,0,0,0-.14-1,2.63,2.63,0,0,0-.41-.83,2.08,2.08,0,0,0-.67-.58,2,2,0,0,0-1.83,0,2.06,2.06,0,0,0-.66.58,2.67,2.67,0,0,0-.41.83,3.35,3.35,0,0,0-.14,1Z"/><path d="M351,202v.71a1.59,1.59,0,0,1,.53-.59,1.53,1.53,0,0,1,.85-.23,1.69,1.69,0,0,1,.48.06,1.16,1.16,0,0,1,.36.17,1.08,1.08,0,0,1,.26.27,1.47,1.47,0,0,1,.17.34,1.73,1.73,0,0,1,.55-.59,1.54,1.54,0,0,1,.87-.24,1.5,1.5,0,0,1,.69.14,1.21,1.21,0,0,1,.45.38,1.56,1.56,0,0,1,.24.56,3,3,0,0,1,.07.67v4.71h-.66v-4.71a2.09,2.09,0,0,0,0-.41,1.09,1.09,0,0,0-.14-.37.75.75,0,0,0-.29-.26,1,1,0,0,0-.47-.09,1.31,1.31,0,0,0-.5.09,1,1,0,0,0-.33.23,1.06,1.06,0,0,0-.21.31,1.79,1.79,0,0,0-.11.35v4.86h-.66v-4.78a1.89,1.89,0,0,0,0-.39,1,1,0,0,0-.14-.35.75.75,0,0,0-.28-.25,1,1,0,0,0-.46-.09,1.31,1.31,0,0,0-.48.09,1,1,0,0,0-.33.22,1.09,1.09,0,0,0-.21.32,2.19,2.19,0,0,0-.13.37v4.85h-.66V202Z"/><path d="M276.79,302.8l1.72,4.83,1.83-4.83h.92v8.53h-.69v-3.78l0-3.81-1.89,5h-.46l-1.76-5,.06,3.73v3.78h-.69v-8.5Z"/><path d="M287.6,311.33a2.54,2.54,0,0,1-.1-.43v-.48a2.63,2.63,0,0,1-.42.41,2.92,2.92,0,0,1-.52.33,3,3,0,0,1-.61.22,2.92,2.92,0,0,1-.69.08,2.59,2.59,0,0,1-.83-.13,2.08,2.08,0,0,1-.67-.36,1.65,1.65,0,0,1-.61-1.31,1.7,1.7,0,0,1,.24-.93,1.85,1.85,0,0,1,.65-.62,3.16,3.16,0,0,1,1-.35,5.58,5.58,0,0,1,1.13-.11h1.37v-.72a1.46,1.46,0,0,0-.14-.63,1.33,1.33,0,0,0-.37-.46,1.59,1.59,0,0,0-.55-.28,2.46,2.46,0,0,0-.69-.09,2.35,2.35,0,0,0-.65.09,1.84,1.84,0,0,0-.54.25,1.34,1.34,0,0,0-.38.4,1.08,1.08,0,0,0-.16.54h-.7a1.6,1.6,0,0,1,.21-.74,2,2,0,0,1,.53-.59,2.61,2.61,0,0,1,.78-.39,3.11,3.11,0,0,1,1-.14,3.37,3.37,0,0,1,1,.13,2.22,2.22,0,0,1,.77.39,1.86,1.86,0,0,1,.52.64,2.07,2.07,0,0,1,.2.9v3a3.75,3.75,0,0,0,.06.64,6.19,6.19,0,0,0,.14.62v.07Zm-2.31-.5a2.47,2.47,0,0,0,.71-.09,2.54,2.54,0,0,0,.62-.26,2.26,2.26,0,0,0,.5-.4,1.83,1.83,0,0,0,.34-.51v-1.39h-1.28a5.48,5.48,0,0,0-.89.07,2.7,2.7,0,0,0-.76.23,1.4,1.4,0,0,0-.52.43,1.23,1.23,0,0,0-.08,1.19,1.2,1.2,0,0,0,.32.39,1.41,1.41,0,0,0,.47.25A1.92,1.92,0,0,0,285.29,310.83Z"/><path d="M294.64,304.88a4.34,4.34,0,0,1,.53,0,2.3,2.3,0,0,1,.44.09l-.09.67-.49-.08h-.5A2.63,2.63,0,0,0,293,306a2.25,2.25,0,0,0-.87,1.29v4h-.73V305h.67v1.23a2.81,2.81,0,0,1,1-1A3,3,0,0,1,294.64,304.88Z"/><path d="M297.45,308.11a4.79,4.79,0,0,1,.15-1.22,3.19,3.19,0,0,1,.47-1,2.37,2.37,0,0,1,.79-.71,2.35,2.35,0,0,1,3,.73V305h.66v6.23a3.21,3.21,0,0,1-.18,1.07,2.36,2.36,0,0,1-.51.83,2.29,2.29,0,0,1-.8.54,2.74,2.74,0,0,1-1,.19,2.88,2.88,0,0,1-1.18-.26,3,3,0,0,1-.56-.34,2.19,2.19,0,0,1-.47-.48l.39-.42a2.24,2.24,0,0,0,1.77.91,2.07,2.07,0,0,0,.8-.15,1.6,1.6,0,0,0,.59-.41,1.83,1.83,0,0,0,.36-.64,2.65,2.65,0,0,0,.13-.82v-.72a2.25,2.25,0,0,1-.82.68,2.41,2.41,0,0,1-1.08.24,2.17,2.17,0,0,1-1.1-.27,2.4,2.4,0,0,1-.78-.72,3.27,3.27,0,0,1-.47-1,4.64,4.64,0,0,1-.16-1.2Zm.7.12a4.4,4.4,0,0,0,.1.94,2.69,2.69,0,0,0,.33.84,1.81,1.81,0,0,0,.6.6,1.68,1.68,0,0,0,.9.23,2,2,0,0,0,.57-.08,1.86,1.86,0,0,0,.9-.58,2,2,0,0,0,.3-.47v-3a2.41,2.41,0,0,0-.29-.49,1.87,1.87,0,0,0-.39-.38,1.83,1.83,0,0,0-.49-.25,1.81,1.81,0,0,0-.58-.09,1.68,1.68,0,0,0-.91.23,1.87,1.87,0,0,0-.6.6,2.65,2.65,0,0,0-.33.84,4.4,4.4,0,0,0-.1.94Z"/><path d="M305,305h3v5.72h2.16v.62H305v-.62h2.24v-5.09H305Zm2-1.73a.59.59,0,0,1,.12-.37.61.61,0,0,1,.82,0,.58.58,0,0,1,.13.38.56.56,0,0,1-.13.36.62.62,0,0,1-.82,0,.56.56,0,0,1-.12-.38Z"/><path d="M312.69,305l0,1.19a2.64,2.64,0,0,1,.89-1,2.34,2.34,0,0,1,1.27-.36,2,2,0,0,1,1.59.62,2.61,2.61,0,0,1,.56,1.77v4.06h-.7v-4a2,2,0,0,0-.4-1.34,1.49,1.49,0,0,0-1.22-.46,1.89,1.89,0,0,0-.65.11,2.12,2.12,0,0,0-.56.3,2.28,2.28,0,0,0-.45.46,2.5,2.5,0,0,0-.32.57v4.4H312V305Z"/><path d="M323.8,307.81h-4.34v-.59h4.34Z"/><path d="M328.79,303.37V305h2.35v.57h-2.35v4a1.57,1.57,0,0,0,.11.61,1,1,0,0,0,.29.39,1.13,1.13,0,0,0,.43.21,2.16,2.16,0,0,0,.54.06,4.54,4.54,0,0,0,.6,0l.52-.08.11.53a2.68,2.68,0,0,1-.62.15,5.43,5.43,0,0,1-.74,0,2.82,2.82,0,0,1-.78-.1,1.64,1.64,0,0,1-.62-.33,1.55,1.55,0,0,1-.42-.59,2.33,2.33,0,0,1-.16-.88v-4h-1.76V305H328v-1.62Z"/><path d="M333.29,308.07a4,4,0,0,1,.2-1.22,3.14,3.14,0,0,1,.55-1,2.78,2.78,0,0,1,3.26-.69,2.68,2.68,0,0,1,.89.69,3.11,3.11,0,0,1,.56,1,4,4,0,0,1,.2,1.22v.19a4,4,0,0,1-.2,1.22,3.07,3.07,0,0,1-.55,1,2.61,2.61,0,0,1-2.07,1,2.69,2.69,0,0,1-1.19-.25,2.64,2.64,0,0,1-.89-.69,3.11,3.11,0,0,1-.56-1,4,4,0,0,1-.2-1.22Zm.7.19a3.37,3.37,0,0,0,.14,1,2.63,2.63,0,0,0,.41.83,2.05,2.05,0,0,0,.67.58,1.94,1.94,0,0,0,2.49-.58,2.67,2.67,0,0,0,.41-.83,3.37,3.37,0,0,0,.14-1v-.19a3.35,3.35,0,0,0-.14-1,2.63,2.63,0,0,0-.41-.83,2.08,2.08,0,0,0-.67-.58,2,2,0,0,0-1.83,0,2.06,2.06,0,0,0-.66.58,2.67,2.67,0,0,0-.41.83,3.35,3.35,0,0,0-.14,1Z"/><path d="M346,308.23a4.81,4.81,0,0,1-.15,1.2,3.22,3.22,0,0,1-.46,1,2.38,2.38,0,0,1-.78.72,2.18,2.18,0,0,1-1.11.27,2.54,2.54,0,0,1-1.08-.23,2.2,2.2,0,0,1-.83-.66v3.21h-.7V305h.66v.87a2.35,2.35,0,0,1,.82-.73,2.3,2.3,0,0,1,1.1-.26,2.2,2.2,0,0,1,1.9,1,3.25,3.25,0,0,1,.45,1,4.88,4.88,0,0,1,.15,1.22Zm-.7-.12a4.28,4.28,0,0,0-.11-.94,2.66,2.66,0,0,0-.34-.84,1.88,1.88,0,0,0-.61-.6,1.69,1.69,0,0,0-.91-.23,1.87,1.87,0,0,0-.57.08,1.77,1.77,0,0,0-.49.24,2,2,0,0,0-.39.37,2.19,2.19,0,0,0-.29.47v3.14a1.91,1.91,0,0,0,.7.78,1.93,1.93,0,0,0,1,.29,1.67,1.67,0,0,0,.91-.23,1.88,1.88,0,0,0,.6-.61,2.7,2.7,0,0,0,.34-.84,4.32,4.32,0,0,0,.11-1Z"/><rect x="532.57" y="214" width="0.86" height="38.14"/><rect x="532.57" y="259" width="0.86" height="39"/><polygon points="533.1 246 538 246 535.55 250.24 533.1 254.49 530.65 250.24 528.2 246 533.1 246"/><polygon points="533.1 262 528.2 262 530.65 257.76 533.1 253.51 535.55 257.76 538 262 533.1 262"/><path d="M488.34,199.8l1.72,4.83,1.83-4.83h.92v8.53h-.69v-3.78l0-3.81-1.89,5h-.46l-1.76-4.95.06,3.73v3.78h-.69v-8.5Z"/><path d="M499.15,208.33a2.54,2.54,0,0,1-.1-.43q0-.24,0-.48a2.63,2.63,0,0,1-.42.41,2.92,2.92,0,0,1-.52.33,3,3,0,0,1-.61.22,2.92,2.92,0,0,1-.69.08,2.59,2.59,0,0,1-.83-.13,2.08,2.08,0,0,1-.67-.36,1.65,1.65,0,0,1-.61-1.31,1.7,1.7,0,0,1,.24-.93,1.85,1.85,0,0,1,.65-.62,3.16,3.16,0,0,1,1-.35,5.58,5.58,0,0,1,1.13-.11H499v-.72a1.46,1.46,0,0,0-.14-.63,1.33,1.33,0,0,0-.37-.46,1.59,1.59,0,0,0-.55-.28,2.46,2.46,0,0,0-.69-.09,2.35,2.35,0,0,0-.65.09,1.84,1.84,0,0,0-.54.25,1.34,1.34,0,0,0-.38.4,1.08,1.08,0,0,0-.16.54h-.7A1.6,1.6,0,0,1,495,203a2,2,0,0,1,.53-.59,2.61,2.61,0,0,1,.78-.39,3.11,3.11,0,0,1,1-.14,3.37,3.37,0,0,1,1,.13,2.22,2.22,0,0,1,.77.39,1.86,1.86,0,0,1,.52.64,2.07,2.07,0,0,1,.2.9V207a3.75,3.75,0,0,0,.06.64,6.19,6.19,0,0,0,.14.62v.07Zm-2.31-.5a2.47,2.47,0,0,0,.71-.09,2.54,2.54,0,0,0,.62-.26,2.26,2.26,0,0,0,.5-.4,1.83,1.83,0,0,0,.34-.51v-1.39h-1.28a5.48,5.48,0,0,0-.89.07,2.7,2.7,0,0,0-.76.23,1.4,1.4,0,0,0-.52.43,1.23,1.23,0,0,0-.08,1.19,1.2,1.2,0,0,0,.32.39,1.41,1.41,0,0,0,.47.25A1.92,1.92,0,0,0,496.84,207.83Z"/><path d="M506.19,201.88a4.34,4.34,0,0,1,.53,0,2.3,2.3,0,0,1,.44.09l-.09.67-.49-.08h-.5a2.63,2.63,0,0,0-1.51.42,2.25,2.25,0,0,0-.87,1.29v4.05H503V202h.67v1.23a2.81,2.81,0,0,1,1-1A3,3,0,0,1,506.19,201.88Z"/><path d="M509,205.11a4.79,4.79,0,0,1,.15-1.22,3.19,3.19,0,0,1,.47-1,2.37,2.37,0,0,1,.79-.71,2.35,2.35,0,0,1,3,.73V202h.66v6.23a3.21,3.21,0,0,1-.18,1.07,2.36,2.36,0,0,1-.51.83,2.29,2.29,0,0,1-.8.54,2.74,2.74,0,0,1-1,.19,2.88,2.88,0,0,1-1.18-.26,3,3,0,0,1-.56-.34,2.19,2.19,0,0,1-.47-.48l.39-.42a2.24,2.24,0,0,0,1.77.91,2.07,2.07,0,0,0,.8-.15,1.6,1.6,0,0,0,.59-.41,1.83,1.83,0,0,0,.36-.64,2.65,2.65,0,0,0,.13-.82v-.72a2.25,2.25,0,0,1-.82.68,2.41,2.41,0,0,1-1.08.24,2.17,2.17,0,0,1-1.1-.27,2.4,2.4,0,0,1-.78-.72,3.27,3.27,0,0,1-.47-1,4.64,4.64,0,0,1-.16-1.2Zm.7.12a4.4,4.4,0,0,0,.1.94,2.69,2.69,0,0,0,.33.84,1.81,1.81,0,0,0,.6.6,1.68,1.68,0,0,0,.9.23,2,2,0,0,0,.57-.08,1.86,1.86,0,0,0,.9-.58,2,2,0,0,0,.3-.47v-3a2.41,2.41,0,0,0-.29-.49,1.87,1.87,0,0,0-.39-.38,1.83,1.83,0,0,0-.49-.25,1.81,1.81,0,0,0-.58-.09,1.68,1.68,0,0,0-.91.23,1.87,1.87,0,0,0-.6.6,2.65,2.65,0,0,0-.33.84,4.4,4.4,0,0,0-.1.94Z"/><path d="M516.56,202h2.94v5.72h2.16v.62h-5.1v-.62h2.24v-5.09h-2.24Zm2-1.73a.59.59,0,0,1,.12-.37.61.61,0,0,1,.82,0,.58.58,0,0,1,.13.38.56.56,0,0,1-.13.36.62.62,0,0,1-.82,0,.56.56,0,0,1-.09-.38Z"/><path d="M524.24,202l0,1.19a2.64,2.64,0,0,1,.89-.95,2.34,2.34,0,0,1,1.27-.36,2,2,0,0,1,1.59.62,2.61,2.61,0,0,1,.56,1.77v4.06h-.7v-4a2,2,0,0,0-.4-1.34,1.49,1.49,0,0,0-1.22-.46,1.89,1.89,0,0,0-.65.11,2.12,2.12,0,0,0-.56.3,2.28,2.28,0,0,0-.45.46,2.5,2.5,0,0,0-.32.57v4.4h-.7V202Z"/><path d="M535.35,204.81H531v-.59h4.34Z"/><path d="M538,208.33V199.8h2.33a4,4,0,0,1,1,.14,2.68,2.68,0,0,1,.87.4,2.07,2.07,0,0,1,.61.69,2,2,0,0,1,.23,1,1.81,1.81,0,0,1-.11.65,1.78,1.78,0,0,1-.3.52,2,2,0,0,1-.45.39,2.85,2.85,0,0,1-.56.28,2.51,2.51,0,0,1,.68.27,2.06,2.06,0,0,1,.9,1.05,2,2,0,0,1,.13.73,2.21,2.21,0,0,1-.21,1,2.26,2.26,0,0,1-.59.75,2.65,2.65,0,0,1-.85.47,3.24,3.24,0,0,1-1,.17Zm.7-4.71h1.72a2.73,2.73,0,0,0,.71-.11,1.88,1.88,0,0,0,.61-.3,1.54,1.54,0,0,0,.43-.5,1.63,1.63,0,0,0,0-1.44,1.44,1.44,0,0,0-.45-.49,2,2,0,0,0-.64-.28,3.16,3.16,0,0,0-.73-.1H538.7Zm0,.6v3.49h2a2.28,2.28,0,0,0,.74-.13,2,2,0,0,0,.62-.35,1.66,1.66,0,0,0,.42-.55,1.7,1.7,0,0,0,.16-.74,1.65,1.65,0,0,0-.15-.72,1.54,1.54,0,0,0-.41-.53,1.89,1.89,0,0,0-.6-.33,2.44,2.44,0,0,0-.72-.13Z"/><path d="M544.84,205.07a4,4,0,0,1,.2-1.22,3.14,3.14,0,0,1,.55-1,2.78,2.78,0,0,1,3.26-.69,2.68,2.68,0,0,1,.89.69,3.11,3.11,0,0,1,.56,1,4,4,0,0,1,.2,1.22v.19a4,4,0,0,1-.2,1.22,3.07,3.07,0,0,1-.55,1,2.61,2.61,0,0,1-2.07.95,2.69,2.69,0,0,1-1.19-.25,2.64,2.64,0,0,1-.89-.69,3.11,3.11,0,0,1-.56-1,4,4,0,0,1-.2-1.22Zm.7.19a3.37,3.37,0,0,0,.14,1,2.63,2.63,0,0,0,.41.83,2,2,0,0,0,.67.58,1.94,1.94,0,0,0,2.49-.58,2.67,2.67,0,0,0,.41-.83,3.37,3.37,0,0,0,.14-1v-.19a3.35,3.35,0,0,0-.14-1,2.63,2.63,0,0,0-.41-.83,2.08,2.08,0,0,0-.67-.58,2,2,0,0,0-1.83,0,2.06,2.06,0,0,0-.66.58,2.67,2.67,0,0,0-.41.83,3.35,3.35,0,0,0-.14,1Z"/><path d="M554.74,200.37V202h2.35v.57h-2.35v4a1.57,1.57,0,0,0,.11.61,1,1,0,0,0,.29.39,1.13,1.13,0,0,0,.43.21,2.16,2.16,0,0,0,.54.06,4.54,4.54,0,0,0,.6,0l.52-.08.11.53a2.68,2.68,0,0,1-.62.15,5.43,5.43,0,0,1-.74,0,2.82,2.82,0,0,1-.78-.1,1.64,1.64,0,0,1-.62-.33,1.55,1.55,0,0,1-.42-.59,2.33,2.33,0,0,1-.16-.88v-4h-1.76V202H554v-1.62Z"/><path d="M561.94,200.37V202h2.35v.57h-2.35v4a1.57,1.57,0,0,0,.11.61,1,1,0,0,0,.29.39,1.13,1.13,0,0,0,.43.21,2.16,2.16,0,0,0,.54.06,4.54,4.54,0,0,0,.6,0l.52-.08.11.53a2.68,2.68,0,0,1-.62.15,5.43,5.43,0,0,1-.74,0,2.82,2.82,0,0,1-.78-.1,1.64,1.64,0,0,1-.62-.33,1.55,1.55,0,0,1-.42-.59,2.33,2.33,0,0,1-.16-.88v-4h-1.76V202h1.76v-1.62Z"/><path d="M566.44,205.07a4,4,0,0,1,.2-1.22,3.14,3.14,0,0,1,.55-1,2.78,2.78,0,0,1,3.26-.69,2.68,2.68,0,0,1,.89.69,3.11,3.11,0,0,1,.56,1,4,4,0,0,1,.2,1.22v.19a4,4,0,0,1-.2,1.22,3.07,3.07,0,0,1-.55,1,2.61,2.61,0,0,1-2.07.95,2.69,2.69,0,0,1-1.19-.25,2.64,2.64,0,0,1-.89-.69,3.11,3.11,0,0,1-.56-1,4,4,0,0,1-.2-1.22Zm.7.19a3.37,3.37,0,0,0,.14,1,2.63,2.63,0,0,0,.41.83,2,2,0,0,0,.67.58,1.94,1.94,0,0,0,2.49-.58,2.67,2.67,0,0,0,.41-.83,3.37,3.37,0,0,0,.14-1v-.19a3.35,3.35,0,0,0-.14-1,2.63,2.63,0,0,0-.41-.83,2.08,2.08,0,0,0-.67-.58,2,2,0,0,0-1.83,0,2.06,2.06,0,0,0-.66.58,2.67,2.67,0,0,0-.41.83,3.35,3.35,0,0,0-.14,1Z"/><path d="M574,202v.71a1.59,1.59,0,0,1,.53-.59,1.53,1.53,0,0,1,.85-.23,1.69,1.69,0,0,1,.48.06,1.16,1.16,0,0,1,.36.17,1.08,1.08,0,0,1,.26.27,1.47,1.47,0,0,1,.17.34,1.73,1.73,0,0,1,.55-.59,1.54,1.54,0,0,1,.87-.24,1.5,1.5,0,0,1,.69.14,1.21,1.21,0,0,1,.45.38,1.56,1.56,0,0,1,.24.56,3,3,0,0,1,.07.67v4.71h-.66v-4.71a2.09,2.09,0,0,0,0-.41,1.09,1.09,0,0,0-.14-.37.75.75,0,0,0-.29-.26,1,1,0,0,0-.47-.09,1.31,1.31,0,0,0-.5.09,1,1,0,0,0-.33.23,1.06,1.06,0,0,0-.21.31,1.79,1.79,0,0,0-.11.35v4.86h-.66v-4.78a1.89,1.89,0,0,0,0-.39,1,1,0,0,0-.14-.35.75.75,0,0,0-.28-.25,1,1,0,0,0-.46-.09,1.31,1.31,0,0,0-.48.09,1,1,0,0,0-.33.22,1.09,1.09,0,0,0-.21.32,2.19,2.19,0,0,0-.13.37v4.85h-.66V202Z"/><path d="M499.79,302.8l1.72,4.83,1.83-4.83h.92v8.53h-.69v-3.78l0-3.81-1.89,5h-.46l-1.76-5,.06,3.73v3.78h-.69v-8.5Z"/><path d="M510.6,311.33a2.54,2.54,0,0,1-.1-.43v-.48a2.63,2.63,0,0,1-.42.41,2.92,2.92,0,0,1-.52.33,3,3,0,0,1-.61.22,2.92,2.92,0,0,1-.69.08,2.59,2.59,0,0,1-.83-.13,2.08,2.08,0,0,1-.67-.36,1.65,1.65,0,0,1-.61-1.31,1.7,1.7,0,0,1,.24-.93,1.85,1.85,0,0,1,.65-.62,3.16,3.16,0,0,1,1-.35,5.58,5.58,0,0,1,1.13-.11h1.37v-.72a1.46,1.46,0,0,0-.14-.63,1.33,1.33,0,0,0-.37-.46,1.59,1.59,0,0,0-.55-.28,2.46,2.46,0,0,0-.69-.09,2.35,2.35,0,0,0-.65.09,1.84,1.84,0,0,0-.54.25,1.34,1.34,0,0,0-.38.4,1.08,1.08,0,0,0-.16.54h-.7a1.6,1.6,0,0,1,.21-.74,2,2,0,0,1,.53-.59,2.61,2.61,0,0,1,.78-.39,3.11,3.11,0,0,1,1-.14,3.37,3.37,0,0,1,1,.13,2.22,2.22,0,0,1,.77.39,1.86,1.86,0,0,1,.52.64,2.07,2.07,0,0,1,.2.9v3a3.75,3.75,0,0,0,.06.64,6.19,6.19,0,0,0,.14.62v.07Zm-2.31-.5a2.47,2.47,0,0,0,.71-.09,2.54,2.54,0,0,0,.62-.26,2.26,2.26,0,0,0,.5-.4,1.83,1.83,0,0,0,.34-.51v-1.39h-1.28a5.48,5.48,0,0,0-.89.07,2.7,2.7,0,0,0-.76.23,1.4,1.4,0,0,0-.52.43,1.23,1.23,0,0,0-.08,1.19,1.2,1.2,0,0,0,.32.39,1.41,1.41,0,0,0,.47.25A1.92,1.92,0,0,0,508.29,310.83Z"/><path d="M517.64,304.88a4.34,4.34,0,0,1,.53,0,2.3,2.3,0,0,1,.44.09l-.09.67-.49-.08h-.5A2.63,2.63,0,0,0,516,306a2.25,2.25,0,0,0-.87,1.29v4h-.73V305h.67v1.23a2.81,2.81,0,0,1,1-1A3,3,0,0,1,517.64,304.88Z"/><path d="M520.45,308.11a4.79,4.79,0,0,1,.15-1.22,3.19,3.19,0,0,1,.47-1,2.37,2.37,0,0,1,.79-.71,2.35,2.35,0,0,1,3,.73V305h.66v6.23a3.21,3.21,0,0,1-.18,1.07,2.36,2.36,0,0,1-.51.83,2.29,2.29,0,0,1-.8.54,2.74,2.74,0,0,1-1,.19,2.88,2.88,0,0,1-1.18-.26,3,3,0,0,1-.56-.34,2.19,2.19,0,0,1-.47-.48l.39-.42a2.24,2.24,0,0,0,1.77.91,2.07,2.07,0,0,0,.8-.15,1.6,1.6,0,0,0,.59-.41,1.83,1.83,0,0,0,.36-.64,2.65,2.65,0,0,0,.13-.82v-.72a2.25,2.25,0,0,1-.82.68,2.41,2.41,0,0,1-1.08.24,2.17,2.17,0,0,1-1.1-.27,2.4,2.4,0,0,1-.78-.72,3.27,3.27,0,0,1-.47-1,4.64,4.64,0,0,1-.16-1.2Zm.7.12a4.4,4.4,0,0,0,.1.94,2.69,2.69,0,0,0,.33.84,1.81,1.81,0,0,0,.6.6,1.68,1.68,0,0,0,.9.23,2,2,0,0,0,.57-.08,1.86,1.86,0,0,0,.9-.58,2,2,0,0,0,.3-.47v-3a2.41,2.41,0,0,0-.29-.49,1.87,1.87,0,0,0-.39-.38,1.83,1.83,0,0,0-.49-.25,1.81,1.81,0,0,0-.58-.09,1.68,1.68,0,0,0-.91.23,1.87,1.87,0,0,0-.6.6,2.65,2.65,0,0,0-.33.84,4.4,4.4,0,0,0-.1.94Z"/><path d="M528,305h3v5.72h2.16v.62H528v-.62h2.24v-5.09H528Zm2-1.73a.59.59,0,0,1,.12-.37.61.61,0,0,1,.82,0,.58.58,0,0,1,.13.38.56.56,0,0,1-.13.36.62.62,0,0,1-.82,0,.56.56,0,0,1-.12-.38Z"/><path d="M535.69,305l0,1.19a2.64,2.64,0,0,1,.89-1,2.34,2.34,0,0,1,1.27-.36,2,2,0,0,1,1.59.62,2.61,2.61,0,0,1,.56,1.77v4.06h-.7v-4A2,2,0,0,0,539,306a1.49,1.49,0,0,0-1.22-.46,1.89,1.89,0,0,0-.65.11,2.12,2.12,0,0,0-.56.3,2.28,2.28,0,0,0-.45.46,2.5,2.5,0,0,0-.32.57v4.4H535V305Z"/><path d="M546.8,307.81h-4.34v-.59h4.34Z"/><path d="M551.79,303.37V305h2.35v.57h-2.35v4a1.57,1.57,0,0,0,.11.61,1,1,0,0,0,.29.39,1.13,1.13,0,0,0,.43.21,2.16,2.16,0,0,0,.54.06,4.55,4.55,0,0,0,.6,0l.52-.08.11.53a2.68,2.68,0,0,1-.62.15,5.43,5.43,0,0,1-.74,0,2.82,2.82,0,0,1-.78-.1,1.64,1.64,0,0,1-.62-.33,1.55,1.55,0,0,1-.42-.59,2.33,2.33,0,0,1-.16-.88v-4h-1.76V305H551v-1.62Z"/><path d="M556.29,308.07a4,4,0,0,1,.2-1.22,3.14,3.14,0,0,1,.55-1,2.78,2.78,0,0,1,3.26-.69,2.68,2.68,0,0,1,.89.69,3.11,3.11,0,0,1,.56,1,4,4,0,0,1,.2,1.22v.19a4,4,0,0,1-.2,1.22,3.07,3.07,0,0,1-.55,1,2.61,2.61,0,0,1-2.07,1,2.69,2.69,0,0,1-1.19-.25,2.64,2.64,0,0,1-.89-.69,3.11,3.11,0,0,1-.56-1,4,4,0,0,1-.2-1.22Zm.7.19a3.37,3.37,0,0,0,.14,1,2.63,2.63,0,0,0,.41.83,2,2,0,0,0,.67.58,1.94,1.94,0,0,0,2.49-.58,2.67,2.67,0,0,0,.41-.83,3.37,3.37,0,0,0,.14-1v-.19a3.35,3.35,0,0,0-.14-1,2.63,2.63,0,0,0-.41-.83,2.08,2.08,0,0,0-.67-.58,2,2,0,0,0-1.83,0,2.06,2.06,0,0,0-.66.58,2.67,2.67,0,0,0-.41.83,3.35,3.35,0,0,0-.14,1Z"/><path d="M569,308.23a4.81,4.81,0,0,1-.15,1.2,3.22,3.22,0,0,1-.46,1,2.38,2.38,0,0,1-.78.72,2.18,2.18,0,0,1-1.11.27,2.54,2.54,0,0,1-1.08-.23,2.2,2.2,0,0,1-.83-.66v3.21h-.7V305h.66v.87a2.35,2.35,0,0,1,.82-.73,2.3,2.3,0,0,1,1.1-.26,2.2,2.2,0,0,1,1.9,1,3.25,3.25,0,0,1,.45,1,4.88,4.88,0,0,1,.15,1.22Zm-.7-.12a4.28,4.28,0,0,0-.11-.94,2.66,2.66,0,0,0-.34-.84,1.88,1.88,0,0,0-.61-.6,1.69,1.69,0,0,0-.91-.23,1.87,1.87,0,0,0-.57.08,1.77,1.77,0,0,0-.49.24,2,2,0,0,0-.39.37,2.19,2.19,0,0,0-.29.47v3.14a1.91,1.91,0,0,0,.7.78,1.93,1.93,0,0,0,1,.29,1.67,1.67,0,0,0,.91-.23,1.88,1.88,0,0,0,.6-.61,2.7,2.7,0,0,0,.34-.84,4.32,4.32,0,0,0,.11-1Z"/><path d="M188,512h-3v1h3Zm-6,0h-3v1h3Zm-6,0h-3v1h3Zm-6,0h-3v1h3Zm-6,0h-3v1h3Zm-6,0h-3v1h3Zm-6,0h-3v1h3Zm-6,0h-3v1h3Zm-6,0h-3v1h3Zm-6,0h-3v1h3Zm-6,0h-3v1h3Zm-6,0h-3v1h3Zm-6,0h-3v1h3Zm-6,0h-3v1h3Zm-6,0h-3v1h3Zm-6,0H95v1h3Zm-6,0H89v1h3Zm-6,0H83v1h3Zm-6,0H77v1h3Zm-6,0H71v1h3Zm-6,0H65v1h3Zm-6,0H59v1h3Zm-6,0H53v1h3Zm-6,0H47v1h3Zm-6,0H41v1h3Zm-6,0H35v1h3Zm-6,0H29v1h3Zm-6,0H23v1h3Zm-6,0H17v1h3Zm-6,0H11v1h3Zm-6,0H5v1H8Zm-6,0H0v1H2Zm-1,4H0v3H1Zm0,6H0v3H1Zm0,6H0v3H1Zm0,6H0v3H1Zm0,6H0v3H1Zm0,6H0v3H1Zm0,6H0v3H1Zm0,6H0v3H1Zm0,6H0v3H1Zm0,6H0v3H1Zm0,6H0v3H1Zm0,6H0v3H1Zm0,6H0v3H1Zm0,6H0v3H1Zm0,6H0v3H1Zm0,6H0v3H1Zm0,6H0v3H1Zm0,6H0v3H1Zm0,6H0v3H1Zm0,6H0v3H1Zm0,6H0v3H1Zm0,6H0v3H1Zm0,6H0v3H1Zm0,6H0v3H1Zm0,6H0v3H1Zm0,6H0v3H1Zm0,6H0v3H1Zm0,6H0v3H1Zm0,6H0v3H1Zm0,6H0v3H1Zm0,6H0v3H1Zm0,6H0v3H1Zm4,3H2v1H5Zm6,0H8v1h3Zm6,0H14v1h3Zm6,0H20v1h3Zm6,0H26v1h3Zm6,0H32v1h3Zm6,0H38v1h3Zm6,0H44v1h3Zm6,0H50v1h3Zm6,0H56v1h3Zm6,0H62v1h3Zm6,0H68v1h3Zm6,0H74v1h3Zm6,0H80v1h3Zm6,0H86v1h3Zm6,0H92v1h3Zm6,0H98v1h3Zm6,0h-3v1h3Zm6,0h-3v1h3Zm6,0h-3v1h3Zm6,0h-3v1h3Zm6,0h-3v1h3Zm6,0h-3v1h3Zm6,0h-3v1h3Zm6,0h-3v1h3Zm6,0h-3v1h3Zm6,0h-3v1h3Zm6,0h-3v1h3Zm6,0h-3v1h3Zm6,0h-3v1h3Zm6,0h-3v1h3Zm6,0h-3v1h3Zm3-2h-1v3h1Zm0-6h-1v3h1Zm0-6h-1v3h1Zm0-6h-1v3h1Zm0-6h-1v3h1Zm0-6h-1v3h1Zm0-6h-1v3h1Zm0-6h-1v3h1Zm0-6h-1v3h1Zm0-6h-1v3h1Zm0-6h-1v3h1Zm0-6h-1v3h1Zm0-6h-1v3h1Zm0-6h-1v3h1Zm0-6h-1v3h1Zm0-6h-1v3h1Zm0-6h-1v3h1Zm0-6h-1v3h1Zm0-6h-1v3h1Zm0-6h-1v3h1Zm0-6h-1v3h1Zm0-6h-1v3h1Zm0-6h-1v3h1Zm0-6h-1v3h1Zm0-6h-1v3h1Zm0-6h-1v3h1Zm0-6h-1v3h1Zm0-6h-1v3h1Zm0-6h-1v3h1Zm0-6h-1v3h1Zm0-6h-1v3h1Zm0-6h-1v3h1Zm0-5h-3v1h2v1h1Z" style="fill:#c9c9c9"/><rect x="30" y="542" width="134" height="134" style="fill:url(#linear-gradient-7)"/><path d="M405.93,512h-3v1h3Zm-6,0h-3v1h3Zm-6,0h-3v1h3Zm-6,0h-3v1h3Zm-6,0h-3v1h3Zm-6,0h-3v1h3Zm-6,0h-3v1h3Zm-6,0h-3v1h3Zm-6,0h-3v1h3Zm-6,0h-3v1h3Zm-6,0h-3v1h3Zm-6,0h-3v1h3Zm-6,0h-3v1h3Zm-6,0h-3v1h3Zm-6,0h-3v1h3Zm-6,0h-3v1h3Zm-6,0h-3v1h3Zm-6,0h-3v1h3Zm-6,0h-3v1h3Zm-6,0h-3v1h3Zm-6,0h-3v1h3Zm-6,0h-3v1h3Zm-6,0h-3v1h3Zm-6,0h-3v1h3Zm-6,0h-3v1h3Zm-6,0h-3v1h3Zm-6,0h-3v1h3Zm-6,0h-3v1h3Zm-6,0h-3v1h3Zm-6,0h-3v1h3Zm-6,0h-3v1h3Zm-6,0h-2v1h2Zm-1,4h-1v3h1Zm0,6h-1v3h1Zm0,6h-1v3h1Zm0,6h-1v3h1Zm0,6h-1v3h1Zm0,6h-1v3h1Zm0,6h-1v3h1Zm0,6h-1v3h1Zm0,6h-1v3h1Zm0,6h-1v3h1Zm0,6h-1v3h1Zm0,6h-1v3h1Zm0,6h-1v3h1Zm0,6h-1v3h1Zm0,6h-1v3h1Zm0,6h-1v3h1Zm0,6h-1v3h1Zm0,6h-1v3h1Zm0,6h-1v3h1Zm0,6h-1v3h1Zm0,6h-1v3h1Zm0,6h-1v3h1Zm0,6h-1v3h1Zm0,6h-1v3h1Zm0,6h-1v3h1Zm0,6h-1v3h1Zm0,6h-1v3h1Zm0,6h-1v3h1Zm0,6h-1v3h1Zm0,6h-1v3h1Zm0,6h-1v3h1Zm0,6h-1v3h1Zm4,3h-3v1h3Zm6,0h-3v1h3Zm6,0h-3v1h3Zm6,0h-3v1h3Zm6,0h-3v1h3Zm6,0h-3v1h3Zm6,0h-3v1h3Zm6,0h-3v1h3Zm6,0h-3v1h3Zm6,0h-3v1h3Zm6,0h-3v1h3Zm6,0h-3v1h3Zm6,0h-3v1h3Zm6,0h-3v1h3Zm6,0h-3v1h3Zm6,0h-3v1h3Zm6,0h-3v1h3Zm6,0h-3v1h3Zm6,0h-3v1h3Zm6,0h-3v1h3Zm6,0h-3v1h3Zm6,0h-3v1h3Zm6,0h-3v1h3Zm6,0h-3v1h3Zm6,0h-3v1h3Zm6,0h-3v1h3Zm6,0h-3v1h3Zm6,0h-3v1h3Zm6,0h-3v1h3Zm6,0h-3v1h3Zm6,0h-3v1h3Zm6,0h-3v1h3Zm3-2h-1v3h1Zm0-6h-1v3h1Zm0-6h-1v3h1Zm0-6h-1v3h1Zm0-6h-1v3h1Zm0-6h-1v3h1Zm0-6h-1v3h1Zm0-6h-1v3h1Zm0-6h-1v3h1Zm0-6h-1v3h1Zm0-6h-1v3h1Zm0-6h-1v3h1Zm0-6h-1v3h1Zm0-6h-1v3h1Zm0-6h-1v3h1Zm0-6h-1v3h1Zm0-6h-1v3h1Zm0-6h-1v3h1Zm0-6h-1v3h1Zm0-6h-1v3h1Zm0-6h-1v3h1Zm0-6h-1v3h1Zm0-6h-1v3h1Zm0-6h-1v3h1Zm0-6h-1v3h1Zm0-6h-1v3h1Zm0-6h-1v3h1Zm0-6h-1v3h1Zm0-6h-1v3h1Zm0-6h-1v3h1Zm0-6h-1v3h1Zm0-6h-1v3h1Zm0-5h-3v1h2v1h1Z" style="fill:#c9c9c9"/><rect x="247.93" y="542" width="134" height="134" style="fill:url(#linear-gradient-8)"/><path d="M623.87,512h-3v1h3Zm-6,0h-3v1h3Zm-6,0h-3v1h3Zm-6,0h-3v1h3Zm-6,0h-3v1h3Zm-6,0h-3v1h3Zm-6,0h-3v1h3Zm-6,0h-3v1h3Zm-6,0h-3v1h3Zm-6,0h-3v1h3Zm-6,0h-3v1h3Zm-6,0h-3v1h3Zm-6,0h-3v1h3Zm-6,0h-3v1h3Zm-6,0h-3v1h3Zm-6,0h-3v1h3Zm-6,0h-3v1h3Zm-6,0h-3v1h3Zm-6,0h-3v1h3Zm-6,0h-3v1h3Zm-6,0h-3v1h3Zm-6,0h-3v1h3Zm-6,0h-3v1h3Zm-6,0h-3v1h3Zm-6,0h-3v1h3Zm-6,0h-3v1h3Zm-6,0h-3v1h3Zm-6,0h-3v1h3Zm-6,0h-3v1h3Zm-6,0h-3v1h3Zm-6,0h-3v1h3Zm-6,0h-2v1h2Zm-1,4h-1v3h1Zm0,6h-1v3h1Zm0,6h-1v3h1Zm0,6h-1v3h1Zm0,6h-1v3h1Zm0,6h-1v3h1Zm0,6h-1v3h1Zm0,6h-1v3h1Zm0,6h-1v3h1Zm0,6h-1v3h1Zm0,6h-1v3h1Zm0,6h-1v3h1Zm0,6h-1v3h1Zm0,6h-1v3h1Zm0,6h-1v3h1Zm0,6h-1v3h1Zm0,6h-1v3h1Zm0,6h-1v3h1Zm0,6h-1v3h1Zm0,6h-1v3h1Zm0,6h-1v3h1Zm0,6h-1v3h1Zm0,6h-1v3h1Zm0,6h-1v3h1Zm0,6h-1v3h1Zm0,6h-1v3h1Zm0,6h-1v3h1Zm0,6h-1v3h1Zm0,6h-1v3h1Zm0,6h-1v3h1Zm0,6h-1v3h1Zm0,6h-1v3h1Zm4,3h-3v1h3Zm6,0h-3v1h3Zm6,0h-3v1h3Zm6,0h-3v1h3Zm6,0h-3v1h3Zm6,0h-3v1h3Zm6,0h-3v1h3Zm6,0h-3v1h3Zm6,0h-3v1h3Zm6,0h-3v1h3Zm6,0h-3v1h3Zm6,0h-3v1h3Zm6,0h-3v1h3Zm6,0h-3v1h3Zm6,0h-3v1h3Zm6,0h-3v1h3Zm6,0h-3v1h3Zm6,0h-3v1h3Zm6,0h-3v1h3Zm6,0h-3v1h3Zm6,0h-3v1h3Zm6,0h-3v1h3Zm6,0h-3v1h3Zm6,0h-3v1h3Zm6,0h-3v1h3Zm6,0h-3v1h3Zm6,0h-3v1h3Zm6,0h-3v1h3Zm6,0h-3v1h3Zm6,0h-3v1h3Zm6,0h-3v1h3Zm6,0h-3v1h3Zm3-2h-1v3h1Zm0-6h-1v3h1Zm0-6h-1v3h1Zm0-6h-1v3h1Zm0-6h-1v3h1Zm0-6h-1v3h1Zm0-6h-1v3h1Zm0-6h-1v3h1Zm0-6h-1v3h1Zm0-6h-1v3h1Zm0-6h-1v3h1Zm0-6h-1v3h1Zm0-6h-1v3h1Zm0-6h-1v3h1Zm0-6h-1v3h1Zm0-6h-1v3h1Zm0-6h-1v3h1Zm0-6h-1v3h1Zm0-6h-1v3h1Zm0-6h-1v3h1Zm0-6h-1v3h1Zm0-6h-1v3h1Zm0-6h-1v3h1Zm0-6h-1v3h1Zm0-6h-1v3h1Zm0-6h-1v3h1Zm0-6h-1v3h1Zm0-6h-1v3h1Zm0-6h-1v3h1Zm0-6h-1v3h1Zm0-6h-1v3h1Zm0-6h-1v3h1Zm0-5h-3v1h2v1h1Z" style="fill:#c9c9c9"/><rect x="465.87" y="542" width="134" height="134" style="fill:url(#linear-gradient-9)"/><polygon points="318.1 523 313.2 523 315.65 518.76 318.1 514.51 320.55 518.76 323 523 318.1 523"/><rect x="317.57" y="523" width="0.86" height="6"/><polygon points="401.86 608.76 401.86 603.86 406.1 606.31 410.34 608.76 406.1 611.21 401.86 613.66 401.86 608.76"/><rect x="383.86" y="608.23" width="18" height="0.86"/><polygon points="317.1 695.51 322 695.51 319.55 699.76 317.1 704 314.65 699.76 312.2 695.51 317.1 695.51"/><rect x="316.77" y="677.51" width="0.86" height="18"/><polygon points="227.34 608.76 227.34 613.66 223.1 611.21 218.85 608.76 223.1 606.31 227.34 603.86 227.34 608.76"/><rect x="227.34" y="608.43" width="18" height="0.86"/><path d="M275.36,534.82v3.52h-.7V529.8h2.68a3.29,3.29,0,0,1,1,.19,2.59,2.59,0,0,1,.86.5,2.33,2.33,0,0,1,.58.79,2.71,2.71,0,0,1,0,2.09,2.28,2.28,0,0,1-.58.78,2.56,2.56,0,0,1-.86.49,3.3,3.3,0,0,1-1,.18Zm0-.59h2a2.33,2.33,0,0,0,.79-.14,2,2,0,0,0,.63-.37,1.72,1.72,0,0,0,.42-.59,1.9,1.9,0,0,0,.16-.79,2,2,0,0,0-.15-.8,1.75,1.75,0,0,0-.42-.61,1.93,1.93,0,0,0-.63-.39,2.4,2.4,0,0,0-.79-.15h-2Z"/><path d="M286.08,538.33a2.54,2.54,0,0,1-.1-.43v-.48a2.63,2.63,0,0,1-.42.41,2.92,2.92,0,0,1-.52.33,3,3,0,0,1-.61.22,2.92,2.92,0,0,1-.69.08,2.59,2.59,0,0,1-.83-.13,2.08,2.08,0,0,1-.67-.36,1.65,1.65,0,0,1-.61-1.31,1.7,1.7,0,0,1,.24-.93,1.85,1.85,0,0,1,.65-.62,3.16,3.16,0,0,1,1-.35,5.58,5.58,0,0,1,1.13-.11H286v-.72a1.46,1.46,0,0,0-.14-.63,1.33,1.33,0,0,0-.37-.46,1.59,1.59,0,0,0-.55-.28,2.46,2.46,0,0,0-.69-.09,2.35,2.35,0,0,0-.65.09,1.84,1.84,0,0,0-.54.25,1.34,1.34,0,0,0-.38.4,1.08,1.08,0,0,0-.16.54h-.7A1.6,1.6,0,0,1,282,533a2,2,0,0,1,.53-.59,2.61,2.61,0,0,1,.78-.39,3.11,3.11,0,0,1,1-.14,3.37,3.37,0,0,1,1,.13,2.22,2.22,0,0,1,.77.39,1.86,1.86,0,0,1,.52.64,2.07,2.07,0,0,1,.2.9V537a3.75,3.75,0,0,0,.06.64,6.19,6.19,0,0,0,.14.62v.07Zm-2.31-.5a2.47,2.47,0,0,0,.71-.09,2.54,2.54,0,0,0,.62-.26,2.26,2.26,0,0,0,.5-.4,1.83,1.83,0,0,0,.34-.51v-1.39h-1.28a5.48,5.48,0,0,0-.89.07,2.7,2.7,0,0,0-.76.23,1.4,1.4,0,0,0-.52.43,1.23,1.23,0,0,0-.08,1.19,1.2,1.2,0,0,0,.32.39,1.41,1.41,0,0,0,.47.25A1.92,1.92,0,0,0,283.77,537.83Z"/><path d="M288.71,535.11a4.62,4.62,0,0,1,.16-1.22,3.28,3.28,0,0,1,.47-1,2.37,2.37,0,0,1,.79-.71,2.42,2.42,0,0,1,2.19,0,2.29,2.29,0,0,1,.8.72v-3.52h.7v9h-.66v-.83a2.26,2.26,0,0,1-.82.7,2.39,2.39,0,0,1-1.08.24,2.16,2.16,0,0,1-1.1-.27,2.43,2.43,0,0,1-.79-.72,3.28,3.28,0,0,1-.47-1,4.56,4.56,0,0,1-.16-1.2Zm.71.12a4.4,4.4,0,0,0,.1.94,2.69,2.69,0,0,0,.33.84,1.81,1.81,0,0,0,.6.6,1.68,1.68,0,0,0,.9.23,2,2,0,0,0,.57-.08,1.87,1.87,0,0,0,.49-.22,1.9,1.9,0,0,0,.4-.35,2,2,0,0,0,.3-.45v-3.07a2.2,2.2,0,0,0-.29-.48,1.94,1.94,0,0,0-.4-.37,1.8,1.8,0,0,0-1.06-.34,1.68,1.68,0,0,0-.91.23,1.87,1.87,0,0,0-.6.6,2.65,2.65,0,0,0-.33.84,4.4,4.4,0,0,0-.1.94Z"/><path d="M295.91,535.11a4.62,4.62,0,0,1,.16-1.22,3.28,3.28,0,0,1,.47-1,2.37,2.37,0,0,1,.79-.71,2.42,2.42,0,0,1,2.19,0,2.29,2.29,0,0,1,.8.72v-3.52h.7v9h-.66v-.83a2.26,2.26,0,0,1-.82.7,2.39,2.39,0,0,1-1.08.24,2.16,2.16,0,0,1-1.1-.27,2.43,2.43,0,0,1-.79-.72,3.28,3.28,0,0,1-.47-1,4.56,4.56,0,0,1-.16-1.2Zm.71.12a4.4,4.4,0,0,0,.1.94,2.69,2.69,0,0,0,.33.84,1.81,1.81,0,0,0,.6.6,1.68,1.68,0,0,0,.9.23,2,2,0,0,0,.57-.08,1.87,1.87,0,0,0,.49-.22,1.9,1.9,0,0,0,.4-.35,2,2,0,0,0,.3-.45v-3.07a2.2,2.2,0,0,0-.29-.48,1.94,1.94,0,0,0-.4-.37,1.8,1.8,0,0,0-1.06-.34,1.68,1.68,0,0,0-.91.23,1.87,1.87,0,0,0-.6.6,2.65,2.65,0,0,0-.33.84,4.4,4.4,0,0,0-.1.94Z"/><path d="M303.49,532h2.94v5.72h2.16v.62h-5.1v-.62h2.24v-5.09h-2.24Zm2-1.73a.59.59,0,0,1,.12-.37.61.61,0,0,1,.82,0,.58.58,0,0,1,.13.38.56.56,0,0,1-.13.36.62.62,0,0,1-.82,0,.56.56,0,0,1-.09-.38Z"/><path d="M311.17,532l0,1.19a2.64,2.64,0,0,1,.89-1,2.34,2.34,0,0,1,1.27-.36,2,2,0,0,1,1.59.62,2.61,2.61,0,0,1,.56,1.77v4.06h-.7v-4a2,2,0,0,0-.4-1.34,1.49,1.49,0,0,0-1.22-.46,1.89,1.89,0,0,0-.65.11,2.12,2.12,0,0,0-.56.3,2.28,2.28,0,0,0-.45.46,2.5,2.5,0,0,0-.32.57v4.4h-.7V532Z"/><path d="M317.53,535.11a4.79,4.79,0,0,1,.15-1.22,3.19,3.19,0,0,1,.47-1,2.37,2.37,0,0,1,.79-.71,2.35,2.35,0,0,1,3,.73V532h.66v6.23a3.21,3.21,0,0,1-.18,1.07,2.36,2.36,0,0,1-.51.83,2.29,2.29,0,0,1-.8.54,2.74,2.74,0,0,1-1,.19,2.88,2.88,0,0,1-1.18-.26,3,3,0,0,1-.56-.34,2.19,2.19,0,0,1-.47-.48l.39-.42a2.24,2.24,0,0,0,1.77.91,2.07,2.07,0,0,0,.8-.15,1.6,1.6,0,0,0,.59-.41,1.83,1.83,0,0,0,.36-.64,2.65,2.65,0,0,0,.13-.82v-.72a2.25,2.25,0,0,1-.82.68,2.41,2.41,0,0,1-1.08.24,2.17,2.17,0,0,1-1.1-.27,2.4,2.4,0,0,1-.78-.72,3.27,3.27,0,0,1-.47-1,4.64,4.64,0,0,1-.16-1.2Zm.7.12a4.4,4.4,0,0,0,.1.94,2.69,2.69,0,0,0,.33.84,1.81,1.81,0,0,0,.6.6,1.68,1.68,0,0,0,.9.23,2,2,0,0,0,.57-.08,1.86,1.86,0,0,0,.9-.58,2,2,0,0,0,.3-.47v-3a2.41,2.41,0,0,0-.29-.49,1.87,1.87,0,0,0-.39-.38,1.83,1.83,0,0,0-.49-.25,1.81,1.81,0,0,0-.58-.09,1.68,1.68,0,0,0-.91.23,1.87,1.87,0,0,0-.6.6,2.65,2.65,0,0,0-.33.84,4.4,4.4,0,0,0-.1.94Z"/><path d="M329.48,534.81h-4.34v-.59h4.34Z"/><path d="M334.47,530.37V532h2.35v.57h-2.35v4a1.57,1.57,0,0,0,.11.61,1,1,0,0,0,.29.39,1.13,1.13,0,0,0,.43.21,2.16,2.16,0,0,0,.54.06,4.54,4.54,0,0,0,.6,0l.52-.08.11.53a2.68,2.68,0,0,1-.62.15,5.42,5.42,0,0,1-.74,0,2.82,2.82,0,0,1-.78-.1,1.64,1.64,0,0,1-.62-.33,1.55,1.55,0,0,1-.42-.59,2.33,2.33,0,0,1-.16-.88v-4H332V532h1.76v-1.62Z"/><path d="M339,535.07a4,4,0,0,1,.2-1.22,3.14,3.14,0,0,1,.55-1,2.78,2.78,0,0,1,3.26-.69,2.68,2.68,0,0,1,.89.69,3.11,3.11,0,0,1,.56,1,4,4,0,0,1,.2,1.22v.19a4,4,0,0,1-.2,1.22,3.07,3.07,0,0,1-.55,1,2.61,2.61,0,0,1-2.07,1,2.69,2.69,0,0,1-1.19-.25,2.64,2.64,0,0,1-.89-.69,3.11,3.11,0,0,1-.56-1,4,4,0,0,1-.2-1.22Zm.7.19a3.37,3.37,0,0,0,.14,1,2.63,2.63,0,0,0,.41.83,2,2,0,0,0,.67.58,1.94,1.94,0,0,0,2.49-.58,2.67,2.67,0,0,0,.41-.83,3.37,3.37,0,0,0,.14-1v-.19a3.35,3.35,0,0,0-.14-1,2.63,2.63,0,0,0-.41-.83,2.08,2.08,0,0,0-.67-.58,2,2,0,0,0-1.83,0,2.06,2.06,0,0,0-.66.58,2.67,2.67,0,0,0-.41.83,3.35,3.35,0,0,0-.14,1Z"/><path d="M351.67,535.23a4.81,4.81,0,0,1-.15,1.2,3.22,3.22,0,0,1-.46,1,2.38,2.38,0,0,1-.78.72,2.18,2.18,0,0,1-1.11.27,2.54,2.54,0,0,1-1.08-.23,2.2,2.2,0,0,1-.83-.66v3.21h-.7V532h.66v.87a2.35,2.35,0,0,1,.82-.73,2.3,2.3,0,0,1,1.1-.26,2.2,2.2,0,0,1,1.9,1,3.25,3.25,0,0,1,.45,1,4.88,4.88,0,0,1,.15,1.22Zm-.7-.12a4.28,4.28,0,0,0-.11-.94,2.66,2.66,0,0,0-.34-.84,1.88,1.88,0,0,0-.61-.6,1.69,1.69,0,0,0-.91-.23,1.87,1.87,0,0,0-.57.08,1.77,1.77,0,0,0-.49.24,2,2,0,0,0-.39.37,2.19,2.19,0,0,0-.29.47v3.14a1.91,1.91,0,0,0,.7.78,1.93,1.93,0,0,0,1,.29,1.67,1.67,0,0,0,.91-.23,1.88,1.88,0,0,0,.6-.61,2.7,2.7,0,0,0,.34-.84,4.32,4.32,0,0,0,.11-1Z"/></g></g></svg>